<mxfile host="app.diagrams.net" modified="2022-04-27T01:27:21.535Z" agent="5.0 (Windows NT 10.0; Win64; x64) AppleWebKit/537.36 (KHTML, like Gecko) Chrome/99.0.4844.51 Safari/537.36 Edg/99.0.1150.39" etag="9vsLKlr0UuQK7YVM-VxM" version="17.4.6" type="github">
  <diagram id="8nIUzOCFlvSp8n8jkkiQ" name="第 1 页">
    <mxGraphModel dx="2249" dy="762" grid="1" gridSize="10" guides="1" tooltips="1" connect="1" arrows="1" fold="1" page="1" pageScale="1" pageWidth="827" pageHeight="1169" math="0" shadow="0">
      <root>
        <mxCell id="0" />
        <mxCell id="1" parent="0" />
        <mxCell id="fHfNaEpn0uH5Ds1h6FYH-1" value="" style="shape=image;verticalLabelPosition=bottom;labelBackgroundColor=default;verticalAlign=top;aspect=fixed;imageAspect=0;image=data:image/png,iVBORw0KGgoAAAANSUhEUgAABXYAAAIrCAYAAABLf8FTAAAgAElEQVR4nOzdf3RT933/8RfgBBHsTBDaYI7rTGWkKTj0h1zWOmOOcRp8cpzjxWOntMMHH1bocnqMx2kdwmE4jTkeBaeloHAyTA+1a9KyzfOqzu1MNg7htHhdgraQGtKFOVocB3unBRQkQPyyv3/wvTeSf4AlZEkf+/k4JyeypNe99y19JKO3P/rcKRcuXBiUpGAwqKysLE1U1Gc26jMb9ZmN+sxGfWajPrNRn9moz2zUZzbqMxv1mY36zJJhFRNvYeTIkSNHjhw5cuTIkSNHjhw5cuTIkSNHLrm5qTFvGQAAAAAAAACQUjR2AQAAAAAAAMAwNHYBAAAAAAAAwDA0dgEAAAAAAADAMDR2AQAAAAAAAMAwNHYBAAAAAAAAwDA0dgEAAAAAAADAMDR2AQAAAAAAAMAwNHYBAAAAAAAAwDA0dgEAAAAAAADAMDR2AQAAAAAAAMAwNHYBAAAAAAAAwDBT3n///cE72UBWVpaCwWDa5+JFfemRixf1pUcuXtSXHrl4UV965OJFfemRixf1pUcuXtSXHrl4UV965OJFfemRixf1pUcuXtSXHrl4UV9qclMGBwcHJenMmTOaN29ezDsKBoPKyspK+xz1JXZ/1JfYHPUldn/Ul9gc9SV2f9SX2Bz1JXZ/1JfYHPUldn/Ul9gc9SV2f9SX2Bz1JXZ/1JfYHPUldn/Ud2c5lmIAAAAAAAAAAMPQ2AUAAAAAAAAAw9DYBQAAAAAAAADD0NgFAAAAAAAAAMPQ2AUAAAAAAAAAw9DYBQAAAAAAAADD0NgFAAAAAAAAAMPQ2AUAAAAAAAAAw9DYBQAAAAAAAADD0NgFAAAAAAAAAMPQ2AUAAAAAAAAAw9DYBQAAAAAAAADDTLlw4cKgJAWDQWVlZaX6eMYN9ZmN+sxGfWajPrNRn9moz2zUZzbqMxv1mY36zEZ9ZqM+s2RYxcRbGDly5MiRI0eOHDly5MiRI0eOHDly5MiRS26OpRgAAAAAAAAAwDA0dgEAAAAAAADAMDR2AQAAAAAAAMAwNHYBAAAAAAAAwDA0dgEAAAAAAADAMDR2AQAAAAAAAMAwNHYBAAAAAAAAwDA0dgEAAAAAAADAMDR2AQAAAAAAAMAwNHYBAAAAAAAAwDA0dgEAAAAAAADAMDR2AQAAAAAAAMAwUy5cuDAoScFgUFlZWak+nnFDfWajPrNRn9moz2zUZzbqMxv1mY36zEZ9ZqM+s1Gf2ajPLBlWMfEWRo4cOXLkyJEjR44cOXLkyJEjR44cOXLkkptjKQYAAAAAAAAAMAyNXQAAAAAAAAAwDI1dAAAAAAAAADAMjV0AAAAAAAAAMAyNXQAAAAAAAAAwDI1dAAAAAAAAADAMjV0AAAAAAAAAMAyNXQAAAAAAAAAwTEaqDwC4U9u3b9cvfvGLEW8bGBjQ1Kmx//0i2bkbN25o2rRpSdtfvLnPf/7z+uu//uuYcxPJSOPNlOfPtPG5dOlSbdy4Mea8SW71/jWUac9fsnJjrW8yjCfpwzE10Z6/RO0vkbnJMqYAAACQvpixC+P94he/UCgUGvG2eD68pSIXz4faO9lfPLlQKKTOzs649jeRjDTeTHj+7iSXivpCodCYG54mu9X711AmPX/JzI2lvskynqQPx9REev4Sub9E5SbTmAIAAED6YsYuJoTMzEy1t7en+jAmtNLSUg0MDKT6MNIC4238lZaWpvoQkobxNP4m03iSGFPJMNnGFAAAANITM3YBAAAAAAAAwDAZwWDQ/iHycizIkUtlLt718hCfdHneU5VjvCXPwMBAzM9juo2X2+UYT8kz0ngybbyMBWMqecb6HpXO44UcOXLkyJEjR46c2bmMrKws+87W5Vh3Qo5cKnN8gE2udHneU5VjvCXP1KlTY3oe03G83C7HeEqeoePJxPEyFoyp5BnLe1S6jxdy5MiRI0eOHDlyZuf41z8AAAAAAAAAGIbGLgAAAAAAAAAYhsYuAAAAAAAAABiGxi4AAAAAAAAAGIbGLgAAAAAAAAAYhsYuAAAAAAAAABiGxi4AAAAAAAAAGIbGLgAAAAAAAAAYhsYuAAAAAAAAABiGxi4AAAAAAAAAGIbGLgAAAAAAAAAYhsYuAAAAAAAAABgm48yZM/YPkZfHKisry4icRH2J3F861Xfjxg1NmzYtrm0idpN9fDLekufGjRsxPY8mvn8ynpJn6HhKx/eX0cSSY0wlz1jfo0wYZya+fyYjJ1FfIvdHfYnNSdSXyP1RX2JzEvUlcn/Ul9icNLHqy5g3b56km0VZl2MRDAaNyFFfYveXTvXxATa5Jvv4ZLwlz7Rp02J6Hk18/2Q8Jc/Q8ZSO7y8jiXV8MqaSZyzvURPp999IqC+x+6O+xOaoL7H7o77E5qgvsfujvsTmqC+x+xvvHEsxAAAAAAAAAIBhaOwCAAAAAAAAgGFo7AIAAAAAAACAYWjsAgAAAAAAAIBhaOwCAAAAAAAAgGFo7AIAAAAAAACAYWjsAgAAAAAAAIBhaOwCt3Dw4EEFAgH5fD55vV4FAgF5PB4FAgFt27ZNfr8/6v7hcNi+3efzye12j/ifx+O55X4DgYBWr14tt9ut1atXKxAI2LdZx2Jd3rx5s8LhcOKLnyTS6bEbz/EWCAS0fv36W24jktfrHXFsWceUTo9bOgmFQqk+BNt4v3+NNHbC4fCwbUe+n7ndbpWWlmrbtm0jbnvo+x2kCxcupPoQbMn6nRgIBLR582Y7N9rvTL/fr23bto34fmSNO8YUAAAAJrKMVB8AkM5KSkrU0tKiz372szp79qwaGhpUU1MjScrMzFR2dvYt87W1tSorK4u6zufzqbOzU+FwWFu3blVHR8ewXF5ennbt2iWn0xl1fSAQ0O7du9XV1aW6ujr7+shtZGdny+PxyOVyxVzvZFReXq6HHnpIxcXFys/PV1ZWVsqOZTzHm9Pp1I4dO7Rz5065XC41NDRE3a+pqcm+XFlZqaqqKuXk5OhrX/uadu3apaNHjyonJ0fz589PULUT0/79+9XZ2amioiItW7ZMCxYsSNmxjOd4kqS+vj7NnDlz2PvUUE6nU83NzfL5fOrt7VVZWZm8Xq+9/f3796uoqEizZs0aNi4nu8HBQf35n/+58vPzVVxcrMLCQt1///0pO57xHlPSzWZwQ0ODysvL5XQ6tWjRIrW1tdmN4dEEAgFVV1erq6tLEr8LAQAAMDnQ2AVGEfkhMbLpJUkPP/ywmpqaoq7/5je/qRdeeEHSzSZZZWWlmpqaohqwlsrKSjkcDtXX16u+vt7eX0tLi9auXSuHwyHp5mykgwcPasOGDXI4HDp69Kjy8/PV3Nxs337kyBGtWbNmXB6DyeDatWs6evSojh49qqlTp2rJkiVatmyZioqKNHv27KQdx3iPN0lyOBzatGmTJGnlypWSbjZR9u3bp4qKimENOrfbrebmZgUCAbW1tdkNE2uf0uh/hJjMTp8+rdOnT6uxsVEPPPCAli1bpmXLlmnhwoVJO4ZkjKdz585pz5492rNnj6SbTT+ryTcWdXV19vatbeTl5cVQ5eRx/PhxHT9+XNu3b1deXp6Ki4v16KOPKjc3N2nHkIwxZf3Bc8mSJXYT1+FwqKamRrW1tZo9e7ZcLtewP4y2trZq+/btysnJ4f0IAAAAkwqNXWAU1iwzq3m6Z88eNTY2av78+aqurlZjY6Pcbre9LEJZWZmeeuopu0nW3d2t3NzcYbOTInk8HhUUFMjtdsvpdCo3N1eHDh1SWVmZ/H6/du7cqbq6OjkcDvl8Pp06dUrHjh0b9qHaaopIH862ROwGBgb0q1/9Sr/61a/0N3/zN3K73Vq2bJkeffRRzZ07d1z3Pd7jzev1KicnR263e8TZ4pFj6sUXX1R7e7uWLFmi5cuXq6GhQevXr5fb7R7xDxAY3bvvvqsf/OAH+sEPfqB58+Zp2bJl+vznP68vfOEL47rfZLx/nThxQq2trXK5XPZ+HA6HQqGQVqxYYe9jNMzYjU9XV5e6urq0a9cuLViwQMuWLVNhYaE+8YlPjOt+x3tM+f1+VVVVae3atcPu43Q6VVdXp+rqapWXl6usrEz19fUqLy9XW1ubtmzZonA4rCNHjozrYwAAAACkGxq7wC34fD61tbXpiSeeUE1NjTo7O3X+/Hnl5+ert7dXbrdbPT09KigouOV2wuGwdu7cqZUrV0Z9LbSqqkoej8f+evLy5cu1b98+/e///q++//3vq66uTk6nU+FwWJ2dnXr88cd1//332zN0UzFjt6SkJObMjRs3NG3atJhzg4ODmjJlyrjmbrX2os/nk8/nU0NDgxYtWqTi4mJdv35dGRnj89Y5nuNtzpw5eu655+ymiTVbfLQZu1/4whfk8Xh06NAhe1Z5KsQy3uIdL4kcnxcvXhz1/mfOnNGBAwd04MABzZkzR4899piuXLmiu+++O+Z9j8V4jie/369XX31VRUVFkm7O3r3vvvsk3fxKfktLi15++WW1tbWppqZGDQ0N9h8S2traVFhYqD179iR9xm7keErG+8ud5gYHB295uzU7fO/evcrJyVFxcbGuXr2qu+66K+bjG4vxHFNHjhy55dIJVmPZ4/Fo8+bN2rJlizo7O9XR0aHe3l49//zz6u3tVXFx8bAsf/AEAADARJURDAbtHyIvx4IcuVTmBgYGNHVq4s8D6Pf7deLECdXX18vn82nGjBn2h9WKigp1dHTYJ2yJXHe0v79fq1at0qpVq9TQ0BD1tdPW1lZJ0Wv/RX7YPHnypHJzc/X7v//7Uc00h8Ohqqoq+f1+tbW1Rc3QlZI7Y/d2jQbTc6O5fv26rly5ooGBgYRu15KM8ebxeHTw4EGdOnXKvs0SOWO3pKREW7ZsUVVVlX0CoshlGIbef7zG3MDAQMzPY6rH2Vi3Mzg4qKtXryZ8nFrGezw99dRT+tznPqc333xTLpdL58+f1+LFi+37zpgxQ/X19fJ6vWppabFnV6Zyjd2RxlOqx0si7z8wMKArV67E3Xi+nWS8R507d04rVqwY9Rhqa2vt9xq/36+3335bK1asUFlZmX784x9HLcUQOXN4vAwMDIzp3zTp8u8lcuTIkSNHjhw5chMvl2GdKCgYDMZ10iBy5FKdG4+mriS5XC65XC77xC6RjatwOCy/369f/vKXCoVCcjgc8nq9qqurU15eng4cOKCjR4/ajYuRZid5PJ5hSypYhq5BaDXapJsn+0rljN1Dhw7FnDlz5ozmzZsXcy4Z4+yLX/yizp07N+Jtn/3sZ+21LK2lGH7605/GfDxjMd7jzbJp0yYFAgGFQiHV1NREzdKNnL3rcDjspUKsNZ2tBpykqLWfx8vUqVP185//fMz3j3e8JHJ87t692368hhppKYZ///d/j3m/YzGe48kaJ08++aT++Z//Wf39/Xrrrbf0R3/0R8OOY7Sm2kjXO53OcZ0dPnQ8pdPvsdEMDg4qPz9/1NutpRgeffRRPfjgg5Kko0ePxnxsY5GM9yhr+0PXl5dkN2otR44cUVlZmV5//XV9/OMf19NPP62WlpakLhEzderU2z6nJowzcuTIkSNHjhw5cubmWIoBGIW13l9fX5+kD2coWusIPv7441q3bp0aGxvlcDiillKQpJ6eHn3kIx9RaWmpvQ1rdpI16yjyg7HX69W//du/ad68eVHLLVgiG8G3mrEbeYyIjXXyNKuZm8yTp433eCsrK7MbMhUVFaN+ZTkvL08VFRUKh8MKhUL2YxAIBNTd3a3y8nKdP39+3B+PiWKkk6fF+9faWCTj/UuScnNz9Q//8A8qKCiQw+GwZ2zeztA/bFnvYZHfZsDIUnXytGS8R1nOnTunhQsXjtqkDYfDys3N1fz58/X6669Lks6fP69QKDQ+xQMAAABpisYuMAqXy6Xly5fbJ3ux1hZctGiRJKm3t3fUrNUU++QnPxk1w1a6uUZhZNaa1VRbW6vKykr19vbaJ7mKbNBGNoIDgYD9lWVrJinrB8bnrrvuUmFhoR577DG53W7df//9KTmOZIy3zs5O+6vTI5093pqJaV3OzMxUdna2JKm7u1tz586V0+mMauyONLNusluwYIGKioq0bNkyLViwICXHkKz3r5ycHO3bt0+lpaVjOq66ujq1tbVp165d9nuWNROcZu7o8vPzVVxcrMLCwgn9HmXd95VXXtHKlSujthG5dq/D4dBjjz0mv99v3/7mm2/eshkMAAAATEQ0doFbqKqqktfrtZur2dnZeuedd/Tyyy9Lkn72s59p48aNWr9+fdQM2a6uLoVCIc2bN0/f+973hs2ora2ttWes1dbWyufzSZL9f7fbLZ/PJ4/Ho3Xr1kUtxbB161b19vZq165damlpsT/out3uYbOecHv/9E//pOnTp0tKzkzKWxnP8RYIBNTf32+vfXm7Gbvd3d2SbjZQ/H6/du3apeeff37Y/c+dO6fMzEyaKf/fmjVrtH79+lQfhqTxHU/SzT9K9fT06MCBA6qurlZ5ebnKysq0adOmqPsHAgFVV1fr7Nmzam1tpYEbgylTpujll1/WQw89lOpDkTT+Y8oaK+Xl5VHjJBwOq7+/f9TjCgQCOnz4sDZs2JCwWgEAAAAT0NgFRmF97XT58uV2wzUcDmvr1q1asmSJ3UDdu3evtm7dqrffflsvvPCCfdb1r371q5I06uykoUsxjMS6j7XfEydOjPg1ZasRbH3g5gzgY2c1dVNtvMdbZKM2HA7fdsZuZ2encnNz5fP5tHv3bu3evdu+76xZs/Sb3/xGjzzyiKSbX8XGTZmZmak+BEnjP548Ho9yc3Pt95nm5uaohl+kysrKqHWHfT6f1q1bF3WfZJ4A0jT33ntvqg9B0viPKZ/Pp+eee87+HWdtu6OjQ9LNteat2cFDdXd3q7i4mD8aAAAAYNKZMvj/T7mczic3SkSO+hK7v3Sqz/oKcHt7e8zbxdiVlpZqYGAgppNZWSbS+JwI481aysM6eVpko82aHZ7qGbjxPM4mvn9OhPFkgpEe53R8fxlJrOOTMZUcY32cJ9Lvv5FQX2L3R32JzVFfYvdHfYnNUV9i90d9ic1RX2L3x8nTAAAJ5XQ6VV9fb/9szfgGAAAAAADmmJrqAwAAAAAAAAAAxIbGLgAAAAAAAAAYhsYuAAAAAAAAABiGxi4AAAAAAAAAGIbGLgAAAAAAAAAYhsYuAAAAAAAAABgmIxgM2j9EXo4FOXKpzA0MDGjqVP5GkSzp8rynKsd4S56BgYGYn8d0Gy+3yzGekmek8WTaeBkLxlTyjPU9Kp3HCzly5MiRI0eOHDmzcxlZWVn2na3Lse6EHLlU5vgAm1zp8rynKsd4S56pU6fG9Dym43i5XY7xlDxDx5OJ42UsGFPJM5b3qHQfL+TIkSNHjhw5cuTMzvGvfwAAAAAAAAAwDI1dAAAAAAAAADAMjV0AAAAAAAAAMAyNXQAAAAAAAAAwDI1dAAAAAAAAADAMjV0AAAAAAAAAMAyNXQAAAAAAAAAwDI1dAAAAAAAAADAMjV0AAAAAAAAAMAyNXQAAAAAAAAAwDI1dAAAAAAAAADAMjV0AAAAAAAAAMExGMBi0f4i8HAty5FKZGxgY0NSp/I0iWdLleU9VjvGWPAMDAzE/j+k2Xm6XYzwlz0jjybTxMhaMqeQZ63tUOo8XcuTIkSNHjhw5cmbnMrKysuw7W5dj3Qk5cqnM8QE2udLleU9VjvGWPFOnTo3peUzH8XK7HOMpeYaOJxPHy1gwppJnLO9R6T5eyJEjR44cOXLkyJmd41//AAAAAAAAAGCYjFQfAJAIoVBIpaWlqT6MCS0UCumee+5J9WGkBcbb+AuFQsrMzEz1YSQF42n8TabxJDGmkmGyjSkAAACkJ2bswnhLly4d9cPVwMBAXNtMdu7GjRtJ3V88uczMTBUUFMS1v4lkpPFmwvN3J7lU1JeZmamlS5fGlTfJrd6/hjLp+Utmbiz1TZbxJH04pibS85fI/SUqN5nGFAAAANIXM3ZhvI0bN2rjxo0j3paua6AMdebMGc2bNy9p+7uT3GQ30ngz6fmbyOPTRLd6/xpqoj9/ya5vorLG1ER//kypDwAAABhPzNgFAAAAAAAAAMPQ2AUAAAAAAAAAw9DYBQAAAAAAAADD0NgFAAAAAAAAAMPQ2AUAAAAAAAAAw9DYBQAAAAAAAADD0NgFAAAAAAAAAMPQ2AUAAAAAAAAAw0x5//33B+9kA1lZWQoGg2mfixf1pUcuXtSXHrl4UV965OJFfemRixf1pUcuXtSXHrl4UV965OJFfemRixf1pUcuXtSXHrl4UV965OJFfanJTRkcHByUpDNnzmjevHkx7ygYDCorKyvtc9SX2P1RX2Jz1JfY/VFfYnPUl9j9UV9ic9SX2P1RX2Jz1JfY/VFfYnPUl9j9UV9ic9SX2P1RX2Jz1JfY/VHfneVYigEAAAAAAAAADENjFwAAAAAAAAAMQ2MXAAAAAAAAAAxDYxcAAAAAAAAADENjFwAAAAAAAAAMQ2MXAAAAAAAAAAxDYxcAAAAAAAAADENjFwAAAAAAAAAMQ2MXAAAAAAAAAAxDYxcAAAAAAAAADENjFwAAAAAAAAAMQ2MXAAAAAAAAAAwz5cKFC4OSFAwGlZWVlerjGTfUZzbqMxv1mY36zEZ9ZqM+s1Gf2ajPbNRnNuozG/WZjfrMkmEVE29h5MiRI0eOHDly5MiRI0eOHDly5MiRI0cuuTmWYgAAAAAAAAAAw9DYBQAAAAAAAADD0NgFAAAAAAAAAMPQ2AUAAAAAAAAAw9DYBQAAAAAAAADD0NgFAAAAAAAAAMPQ2AUAAAAAAAAAw9DYBQAAAAAAAADD0NgFAAAAAAAAAMPQ2AUAAAAAAAAAw9DYBQAAAAAAAADD0NgFAAAAAAAAAMNMuXDhwqAkBYNBZWVlpfp4xg31mY36zEZ9ZqM+s1Gf2ajPbNRnNuozG/WZjfrMRn1moz6zZFjFxFsYOXLkyJEjR44cOXLkyJEjR44cOXLkyJFLbo6lGAAAAAAAAADAMDR2AQAAAAAAAMAwNHYBAAAAAAAAwDA0dgEAAAAAAADAMDR2AQAAAAAAAMAwNHYBAAAAAAAAwDA0dgEAAAAAAADAMDR2AQAAAAAAAMAwNHYBAAAAAAAAwDA0dgEAAAAAAADAMDR2AQAAAAAAAMAwNHYBAAAAAAAAwDBTLly4MChJwWBQWVlZqT6ecUN9ZqM+s1Gf2ajPbNRnNuozG/WZjfrMRn1moz6zUZ/ZqM8sGVYx8RZGjhw5cuTIkSNHjhw5cuTIkSNHjhw5cuSSm2MpBgAAAAAAAAAwDI1dAAAAAAAAADAMjV0AAAAAAAAAMAyNXQAAAAAAAAAwDI1dAAAAAAAAADAMjV0AAAAAAAAAMAyNXQAAAAAAAAAwDI1dAAAAAAAAADAMjV0AAAAAAAAAMAyNXQAAAAAAAAAwDI1dAAAAAAAAADAMjV0AAAAAAAAAMMyU999/f/BONpCVlaVgMJj2uXhRX3rk4kV96ZGLF/WlRy5e1JceuXhRX3rk4kV96ZGLF/WlRy5e1JceuXhRX3rk4kV96ZGLF/WlRy5e1Jea3JTBwcFBSTpz5ozmzZsX846CwaCysrLSPkd9id0f9SU2R32J3R/1JTZHfYndH/UlNkd9id0f9SU2R32J3R/1JTZHfYndH/UlNkd9id0f9SU2R32J3R/13VmOpRgAAAAAAAAAwDA0dgEAAAAAAADAMDR2AQAAAAAAAMAwNHYBAAAAAAAAwDA0dgEAAAAAAADAMDR2AQAAAAAAAMAwNHYBAAAAAAAAwDA0dgEAAAAAAADAMDR2AQAAAAAAAMAwNHYBAAAAAAAAwDA0dgEAAAAAAADAMDR2AQAAAAAAAMAwUy5cuDAoScFgUFlZWak+nnFDfWajPrNRn9moz2zUZzbqMxv1mY36zEZ9ZqM+s1Gf2ajPLBlWMfEWRo4cOXLkyJEjR44cOXLkyJEjR44cOXLkkptjKQYAAAAAAAAAMAyNXQAAAAAAAAAwDI1dAAAAAAAAADAMjV0AAAAAAAAAMAyNXQAAAAAAAAAwDI1dAAAAAAAAADBMRqoPIFk2bdqkt99+O9WHMW4GBwc1ZcqUVB/GuKE+s1Gf2ajPbNRnNuozG/WZjfrS37333qsXX3xRCxYsSPWhAACQEpOmsfvf//3fcjgcuvfee1N9KAAAAACAO3DhwgX97ne/09tvv01jFwAwaU2axq4kzZw5Uz/96U9TfRgAAAAAgDuwZ88e7d+/P9WHAQBASrHGLgAAAAAAAAAYhsYuAAAAAAAAABiGxi4AAAAAAAAAGCYjGAzaP0RejoUpOQAAAADAxBEOh0f9fGjK51Ry5MiRI0cu3lxGVlaWfWfrcqw7MSEHAAAAAJhYHA7HiJ8PTfmcSo4cOXLkyN1JjqUYAAAAAAAAAMAwNHYBAAAAAAAAwDA0dgEAAAAAAADAMDR2AQAAAAAAAMAwNHYBAAAAAAAAwDA0dgEAGEfhcFjbtm2T3+9XIBDQ5s2bFQgE5PP55PF4JEkej0c+n2/EfOT9vF6v3G73qP9Z95MUta+hvF5v1H0tfr9fpaWlt902AAAAACD1MlJ9AAAATGQOh0NPP/20GhoatHbtWknS8ePH9dZbb6mqqkrhcFiSNH/+/DFtr7a2VmVlZcOu9/l86uzsvKNjdblcOnDggBoaGlRTUyOn02lvNzc3V263e8zHAwAAAAAYXzR2AQAYR36/X1VVVerr61NHR4ck2f+XpNLSUh06dEhNTU32ddnZ2aqvr9d3v/tddXV1SZIOHTqkRx55RK2traqrqxtxX5WVleNWR2FhoUpKSuyGryRm8QIAAABACtHYBQBgHLlcLrW3tysQCKi6ulqStGvXrqjm6Nq1a1VWVqZwOKydO3dq5cqVcrlcam5utmfMVlVVyev1jmnGrsfjsRvFHR0dKikpUW9vr90ktlj3yc7Olh/b6VQAACAASURBVMfjkcvlkiT19vaquLjYvl9lZaUcDocyMzN1/vx5OZ1OhcNh9ff3q6CgIMGPGAAAAABgLFhjFwCAcebz+VRcXKzCwkJJUnFxsbxer/x+v/r7++37hcNhhUIhzZo1a8zb3bx5s8LhsNxut6qqqiRJVVVVOnz4sEpKSnT48GHV1NQoJydHhw8fls/nU21trSorK+Xz+XT48GF9/OMfj9pu5H0bGxslyW7snjt3zj5WaexLSAAAAAAAEosZuwAAjCOfz6fdu3fr8OHDkqTu7m5t375dHo9HdXV12r59u9566y2Fw2F1d3dLutlEjdTU1KTjx4+rsLBQe/bsGbYUQ+TSDo2NjSOuhRuLkWbsSlJBQYE6OzvldrvV3d2tuXPn2jOPAQAAAADJRWMXAIBx5Ha71dzcLL/fr507d6qurk5Op1P19fWqr69XOBzW66+/rr6+PnV2dmrJkiVyOBxRa/NWVlaOuBSDz+dTW1ubtmzZMqwZLH3YoP36178+rFkrRS/FECknJ8deLiJyiYfZs2fr9OnTCgQC6uzsZBkGAAAAAEihjGAwaP8QeTkWpuQAAEg2n8+ndevW2T9bzdXIdW0XLlyo5557TtLNk6lJH67NG9lY7enp0Uc+8hGVlpaqr6/P3qY1Y9dq+lpr7Obl5UXNFLaatV6vVz09PaqqqlIgEFBtbe2YanG5XFqwYIFeeukl9fX1qaKi4g4fHQAA7kw4HB7186Epn1PJkSNHjhy5eHMZWVlZ9p2ty7HuxIQcAACp4Ha7VVtbazdSpQ9n2lozZQsLC9XW1qby8nL7BGZDWevvfvKTn9THP/5xHThwIGoZBK/Xa1+uqqpSRUWFGhoa4j5u62Rv1gnXDh06JI/Ho4qKClVXV2v9+vUswwAASDmHwzHi50NTPqeSI0eOHDlyd5JjKQYAAMZROBzWggULJMle+zYvL0+7du2yl09oaWmxG6iFhYUjNkz7+vrU19c35hOrxSNy+Yfe3l7t2rVL3d3d6uzstGf3VldX695779Xu3bvtGcAAAAAAgOSjsQsAwDhyOBxauHChvSRCSUmJent71dDQoKqqKm3cuFE5OTk6duyYDh06pFWrVtlLNERqb29XcXGxZs+erXfeeWfYermSbrmkwljW2LWWfxiJtaSEtdyD1+sd9VgBAAAAAOOPxi4AAOMosiHq8/ns6/1+v7761a9q7dq19snQysrKtHjxYj333HP6xje+oe9+97vq6urS17/+dXV3d6uiokLnz5+/7VIMXq9XdXV1KikpkcPhUDgcjjohWqSxrLHb1NSkQ4cOqbW11W7ilpWVKScnR1VVVTR3AQAAACAFaOwCADCO3G53VEPXMtrsWJfLpR/+8IeSpObm5mG3O51O7d69e9j1VnPYuhz5s8PhUH19/YjHN9r2bnf81m2jzfAFAAAAAIyvqak+AAAAAAAAAABAbGjsAgAAAAAAAIBhaOwCAAAAAAAAgGFo7AIAAAAAAACAYWjsAgAAAAAAAIBhaOwCAAAAAAAAgGFo7AIAAAAAAACAYWjsAgAAAAAAAIBhprz//vuDd7KBrKwsBYPBtM+Vl5frvvvu089+9rOYswAAAACA9LFnzx7t379fGzZs0LJlyxK2XVM+38aL+tIjFy/qS49cvKgvPXLxStf6MubNmydJOnPmjKzLsQgGg0bkAAAAAAATy6xZs0b8fDjRP99SX2L3R32JzVFfYvdHfYnNTbT6MmLesqGuX7+uDz74QF/84hdTfSgAAAAAgDtw+fJlSdJvf/vbFB8JAACpM2kau9LNX/7Xrl1L9WEAk9L169c1depUTZ3K0t5AKvAaBFKL1yCQWDdu3JAkXbp0KcVHAgBA6kyaxu7g4KCmTZum//iP/0j1oQCTktvt1v3336/29vZUHwowKfEaBFIrPz9f9913nzo6OlJ9KMCEUFFRoVOnTumuu+5K9aEAAJAyTBkAAAAAAAAAAMPQ2AUAAAAAAAAAw9DYBQAAAAAAAADD0NgFAAAAAAAAAMPQ2AUAAAAAAAAAw9DYBQAAAAAAAADDZKT6ADB5HDx4UCUlJeru7lZvb68KCwvV0tKiiooKvfTSS1q5cqVcLpd9/3A4rH379qmiokLd3d1at27diNutrKxUQUGBdu/erV27duno0aOqq6sb9TgqKytVVVWV8PoASB6PR01NTbe8T3Z2tjweT9TrHQAAAAAAxIYZu0iakpIStbS0KBwO6+zZs2poaFBFRYUkKTMzU9nZ2bfM19bWyufzRf3X2NgoSXK73Vq/fr2qq6t19uzZqPt+/etfV2trq/0zTV1MZh6PR2632/7P6/Xat4XDYW3evDnq9tWrVysQCERtIxAIaPXq1fZ9fD5f1O2NjY3DXquR/5WXlyelViBdjeW15vF45PF4onJer3fY/fx+v9avX6//+7//G9PrF5iMvF5v1Gtj6O+uWF9vgUDgtr8LAQAAkoEZu0iKQCCg6upqdXV1DZvN9/DDD6upqSnq+m9+85t64YUXJElNTU2qrKxUU1PTiDNxKysrJd1s7jY3N9uNqsiZg3v27JEk5eXladeuXXI6nYkvEkhj1mswPz/f/vAZDoe1detW9fT0RP3Bo7GxUW63W9LND7GrVq3S888/L7fbbW9n/fr1crvdCofD+slPfqJFixbJ4XBI0qiz6y3Z2dkqKioap0oBc9zqtVZQUKC2tjaFw2H7tdXT06Ouri51d3fbuTfffFMLFizQ7/3e7912m8BkFvmNLev3X2dnp6qqqmJ+vUm67e9CAACAZMgIBoP2D5GXY2FKDqnjdDrV3Nwsv9+vI0eOaM+ePWpsbNT8+fNVXV1tfxC1mrJlZWV66qmnopZiyM3NVVlZ2bBtWzOflixZMuz2yA+4gUBADQ0N418skIaOHj2q/Pz8qAauw+FQTU2Nqqur5fP5tGjRomE5l8slj8ejnTt3av78+Tp//rweeugh+74Oh0MrV66MykS+7kayf//+BFUFTBxDX2uzZ8/We++9p76+PrlcLgUCAfX396ukpES9vb32a6ynp0e5ublj2iZ/1ARucjgc2rJli7Zu3Sqfzxfz620svwuRPFeuXBn186Epn1PJkSNHjhy5eHMZWVlZ9p2ty7HuxIQcUs/n86mtrU1PPPGEampq1NnZqfPnzys/P9/+R3NPT48KCgpuuZ1wOKydO3faa/JG/uN8qKEzB/Py8hJaE2CCcDis1157bcQlEJxOp/0aHKmxK92cYZuVlaXu7m7Nnz9fv/nNb3Ty5Mm4ZwCuWbMmrhww0UW+1hYtWqSPfexjOnfunFwul86fP6/MzEz98R//sX7+859r+fLlCofDOn36tEpLS8e0TWbtAh9yOBxasmSJOjs7tXbt2pheb7Nmzbrj34VInOnTp4/4+dCUz6nkyJEjR47cneRYYxdJ4ff7deLECdXX18vhcGjGjBkqKCjQrFmzVFFRocuXLyscDkuS5s+fb+f6+/u1atUqnT59WnV1dXK73XrkkUfU2tqqFStWyO12q7S0VH19faqvrx9xxq61rufhw4eVk5OT1LoBE+Tm5qqnp2fU2x0Oh+bOnave3l45nU6tX79e69atG3H9zpkzZ2r27NnD1vKN/G/z5s326x3AhyJfa5FNJ+nmV8AXLlxo/wEmHA7r/Pnzys7OvuUa9ZHbBBAtJydH/f39khTT6+12vwsBAACShTV2kRQul0sul0s+n89ez8wSDofl9/v1y1/+UqFQSA6HQ16vV3V1dcrLy9OBAwd09OhR1dbWqqysbNiMXWsb27Zts78Gl5OTo56eHmbsAmNwq69ySzdfX/39/fZseuskMV6vV8XFxVHrFlqqqqo4USEQo6GvtcWLF+vUqVMKBAI6deqUVq5cKafTqblz56q7u1vSzZOPOhyOUf9YMnSbAD7U29uruXPnyuFwxPR6k8b2uxAAAGC80dhFUvj9flVVVamvr0+S7JOaWWtxPv7441q3bp0aGxvlcDhUVlam5cuXa9++fZJuNp4+8pGP2LNzJam1tVWSVFtbq8LCQoVCIc2YMUOnTp3S4sWL7cbSSM1kYDKJnPk39CujgUBAx48fv2XTp6+vT8FgMGo2vXRzLezCwkLV1tbK7/crOztbFy9e1JEjR7RixYpbHhMfgIHhhr7WZs2apb6+PnV3dyszM9OemZubm6ve3t4xLV802usXmOyGLlMU7+tt6O9Ca9IBAABAMrAUA5LC5XJp+fLlqq2tlc/nU2Njo0pKSuyvuN3qK6LhcFihUEhz5sxReXm5vbSCtR1JOn/+vObPn6/Lly+rr69Ps2bNkt/v17Zt2+z8tm3b5Pf7k1IvkG4KCwt1/PhxeTwe+7pwOKyGhgbl5+ePukag9UeZ1atXy+l0yufzRW0jUl9fn2bOnKk1a9bI5/Pp2LFjWrFihVpbW+Xz+bR9+3YdO3ZMPp+Ppi4wxNDXmnRzDewFCxbYXw+3ZgouXrxYr732mkKh0C0btiNtE8DN339bt27V3Llz7d9/sbzebvW7EJjMIj9/+f1+lZaW6tFHHx22LJfX61UgENDq1aujrj948KBKS0vldrv15JNPsowXAIwBM3aRNFVVVfJ6vfY/oLOzs/XOO+/o5ZdfliT97Gc/08aNG7V+/fqoJlNXV5dCoZDmzZun733ve9qzZ0/Udmtra/Xmm2/qvvvuU3t7uxYsWCCHw6H29nY9/fTT9syLiooKNTQ0qKamhg+4mHScTqf27t2rrVu3Rr2+rCVOIkUuYWIth2K9Ztxud9QZwqWbM+9dLpc8Ho89mykQCKi2tlYbNmyQy+VSOBzWrFmz9Mwzz6iuro7XIKBbv9YsBQUF9jdaLNZMQmv5oli3CUxGTU1N9jfGpA+/NRZprK+3W/0uBCYzl8ullStX2v/ea29vH3byH6/Xa1/Oz8/X3r177aX4cnJy1N7erkAgoLq6OtXW1vI7DABuY8rg4OCgJJ05c0bz5s2LeQPpela4odxut6ZNm6bXXnst5izunDVraPny5fZMPWu2xJIlS+zGknVdXl6eXnjhBZWUlGju3Ln2Gb+PHDmiNWvW2Nv1+Xz21+M++9nP6j//8z9VUVGhtrY2FRUVqb29XU1NTXbzyrr/0EYWxp/b7VZ2drba29tTfSgYB+FwWD/5yU/0J3/yJwqHw6qurlZXV9eI983OzpbH4+EDcJLxGgRSKz8/X3PmzFFHR0eqDwWYECoqKnTq1Cn95V/+pdauXTvs9on++Tbd6rt+/bpeeuklVVRURDVjR2vsFhYWDvv3YmNjozo7O6P+CGNdP9q3y2I9znTJpdvzl+gc9SV2f9SX2NxEq48Zu0gKl8s1rJngcDhUX18/6nVf/vKXR9xOJOvrOZZHHnlEkuzm79ATOA29P4DEcDgc9skLHQ6HmpubU3xEAAAASIWh51eRpJKSEm3ZsiXqfkNn7ErSzJkz1draqunTp2vevHlRM3wBAMOxxi4AAAAAAEgY69wor776qg4fPqy5c+cOu8/x48f1yCOPyO12q66uLuq25uZm+Xy+qOvC4bA2b95MsxcAIjBjFwAAAAAAJI3T6RzxG14nTpyQJM2YMUOzZ8++5Um2AQA0dgEAAAAAQBJ5PJ5ha+la51cZzUhL+QHAZMdSDAAAAAAAIGHa2trkdrv16KOPqri4WP39/VG3V1VVyefz6fDhw6qsrNSxY8dUX1+vmTNn6ty5czp16lSKjhwAzEJjFwAAAAAAJEzkGrs+n0/19fVyOBz27YFAQB6PR+Fw2F5rd/PmzXriiSe0e/duud1uff/731dOTo598mvW2AWA4TKCwaD9Q+TlWJiSAwAAAABMHFeuXBn186Epn1MnQu769eu6evWqQqGQ5syZoz/7sz+z7x+ZC4fDkqRf//rXampq0nvvvafFixfrO9/5jt566y2tWbNGO3bs0OzZs5WVlaXGxkZdunRJn/70p3XlyhVdu3ZN4XD4lseSTo8LOXLkyI13LiMrK8u+s3U51p2YkJOkgYEBPf7443FlAdy5Dz74gNcgkEK8BoHUGRwcVDAY5DUIJMgHH3wgSZo+ffqInw9N+Zw6UXLXr1/X3XffrczMzKj7BYNB3bhxQ9XV1erq6lJ2drY8Ho+OHDmi1tZWnTt3TuvWrdOPfvQjO7N69eqobd99991aunSpsrKytGPHjpTUR44cOXLpmps0J0+bMmWKJMX8YA4MDGjq1NhXrEh27vr168rIiP3ppL70yE2G+iTp0qVL+uhHPzru++P5S2yO+hK7v1TVd/bs2Zheg6bVl6z9UV9ic5OpvrNnzyocDt/yxECpOk6ev5FRX2L3l+hcKBTS9evXlZmZGfM2kXgZGRmqqqoa8Tan06nm5uao61wul/1/n883LHPmzBnNmzcv8QcKABPMpGrsTpkyRf/4j/8YUy5dO/JDxfuLj/rSIzcZ6isrK5OkmF6DJtU30Z8/6kvc/lJV3+c+9zlJY38NmlZfsvZHfYnNTab6/vAP/1CDg4Njeg2aWF8y9kd9ic2ZXl9FRYVOnTqlu+++O+ZtAgAwUXDyNAAAAAAAAAAwzKSZsQsAAAAAANLfe++9p46ODq1Zs2ZM9w8EAmpoaFBOTo6+//3vj3q/xsZGud3uYde/8cYbeuONN0ZdTsLr9ery5cv69a9/rY6OjmG3l5SUqKamRg0NDVqyZIn9bUVJ8vv9eu655/T888/bS1BECofD2rp1qyTp4YcfVkNDw6jH/e677+q1116zH5dAIKCWlhatXbtWDodjxGP3+/1qaWnRihUr9Mwzz6ivr2/YsW/ZskUOh0M+n0+dnZ1Rj8NI193OlStXtG3bNq1cuXLEmqWbj2lPT8+I27Wez5qaGkmy12geqrKyUlVVVWpsbIxap3nFihUKhULDnitrjefRjgkwEY1dAAAAAACQEB6PR/39/dqyZUvc2wgEArrvvvvsn63mZ2SjLrIh2d3drblz52rVqlV6+umnRzymgoICzZ49W6WlpXZzs7KyUhUVFdq7d6/eeustNTU12ddbDcdwOKxTp06prKxMfr9fra2tdmMwGAzqd7/7nQ4ePCiHw6H6+np5PB7t379fR48ejWpGrlixwr784IMP6tlnn9XmzZvV19dnN269Xu+w5rPH44n7cQyHwzp48KDKy8u1cOFCtbe33/L+J06cUGlp6W2v8/l8Wrdunf1z5OM12nEMff4s1mM+dFs1NTWqra3Vhg0bhq3RbB1DZ2enJOmee+6xnxe/368jR45o06ZN9vNRUFAwYkMfmAho7AIAAAAAgDvi9XpVV1enysrKuLfh9/tVVVVlN17r6uqUl5en7du3KzMz027eWTNVpZtNw1deeUUrV6687fZdLpfa29vl9XqVk5OjRYsWad++ffr2t7+tnJwce6ZoRUWFnbGOZaxrUlsNzjVr1igQCNjNychZotYa1+3t7WNu3Ho8HrsJevToURUWFmrPnj2SPmyORs5ItZqp5eXleuCBB2657cjGq7XNyspKPfXUUzp69Kh9nXV9QUGBamtrVVZWJp/Pp7a2Nq1evXrYrNrW1lZ7NnPk8zcaa03t/fv3q6ioSLt37x7TY3Pp0qWoxnllZWVU83mkhj0wUdDYBQAAAAAAd6SsrCyq0RcPl8ul1tZW7dy5055529LSMuoyA5J08uRJHTt2TCtXrtS7776rZ5991m7GWrN6I4XDYV2+fFmLFi3Sj370I4VCoailEySpo6PDzr755ptauHChHA6HQqFQVAPRUlJSov/6r//S3/7t32rXrl1yOp3y+/3auXOn6urq5HQ6oxqt2dnZdiNcutl4LCkp0cMPPxw1E9ZSUFCgqqoqFRUVRS3FUFRUpIMHD2rDhg2SpH379mnWrFn25fLyci1atEh79uzRX/zFX8jpdI76OM6dO1eHDx+W0+m0Z8MeO3ZM69evt2e7WrNhR8rW19fbP/v9fh08eNBeiiEcDkuSLl++rM2bN484c1eSvvKVr+gb3/iG/XMgEBi2DENeXp527doVlRtpxq4ku/l8q2MHTEdjFwAAAAAApIW+vj7NmDHDbo7OnDlz1MbuBx98MGxWZ3l5uT1b1prVG+nkyZNqaGhQQ0ODKisrtXDhQj3zzDMqKyvTvn37VFFRofPnz+vgwYP64IMP1NbWpvLyckmyZ53OmjVLDQ0Nevrpp3Xt2jUdPHhQn/nMZ/Stb31L69evV3V1tXbv3q2uri4VFxdH7f/EiRPasmWLysrKVFhYqOrqaklSTU2NnE7nmGYeHzx4UCUlJbe8jzUz1ePx6FOf+pQaGhpGbahu2rRp2HX9/f26evXqsKa3pa6uzm5MWzNke3t7R72/JM2YMUP19fXasmWLwuGwnE6n3bzNz88fcbZ3fn6+9u7dK4fDoXA4rH379g27z0gzdi1Wk3rochLAREFjFwAAAAAApIVz587Zs07PnTsXtdbuUIFAQH/6p3+qkydPjmnbgUBAu3fvtpcTsNZo3bFjh3bs2CHpw6/tl5SU6Be/+IXuvfdeSZLD4bAboIFAwN6my+Wyr3e5XPrhD38oSSOuCyvdnDHc3NysT33qUzpz5owGBwf1xBNPqKOjQ//yL/8y4knCrOUMfvjDH+rw4cNqbGxUS0uLXn/9dT366KN203Mon8+n/v5+ffnLX9Zjjz0WNas2cu1ZazZxZBO6srJSRUVF2rlzpzZs2DCsuR65FENnZ6fcbrdOnDghv98/Yt2ZmZn28/rOO+/o29/+tk6ePGnPwHU6nQoGgyNmb2fdunVRM32t2i25ublxbRcwAY1dAAAAAACQFnp7e9XR0aHly5ffdu3cBx54QA888MCYG7tHjx5Vfn7+sOtHm7F7zz336JFHHhl1CYGhJ3OrqanRSy+9ZB/zkSNH9JWvfMXebltbm4qKivTkk0/K4XDozJkz+uQnP6kFCxbo9OnTUcs4WEssWE3bnTt3aunSpXrooYfkdrvtk63t27dPRUVFys7Ojjo2a43Z283stYy0FMMDDzyglStX2s3d2ykqKtKRI0dUVFQ04u0jzRoeOqu5trZ2TMdrGXoiN+nmWsOrVq3SjBkzYtoWYCIauwAAAAAAIC2UlZXpE5/4hDZu3Kj8/PyoNVrHoq2tzT7Z19CmZuQM00ijzdhdtmyZDh06JEmqr69XfX29vRzA66+/ruLiYq1evdreTiAQUGZmprKzs3Xy5EldvHhx1OO0ZrZmZmZKklauXBl1gjTp5snHpJvNzk2bNqmrq0u//e1v7dt7enr0V3/1V/rWt74V1dwMh8Pq7OxUY2OjXnnllbE8bKNyuVx6/PHHdejQIS1evPi297XWuY1kPX9btmyJmjXs9Xol3XxewuGwduzYocWLF0ethXv8+PGoxyQvLy/q5HZut1uvvvpq1EnXXC6XvTREZ2cnM3YxoU1N9QEAAAAAAABYPvjgA509e1ZNTU3yeDwxZcvLy+Xz+eTz+VRfX3/LE6+FQiGdOnVKzc3NOnbsmCorK3X48GG1trbaDdehfvSjH6mgoEAf+9jHNHv2bLs5KUnd3d2Sbi7b0NvbO2pD8V//9V/V0dGh+fPnR11fVVUln8+n1tZWrVixQseOHZPP5xtx3Vq/36/Tp08rPz9fzc3NcrvdCoVC6u7u1r59+7R27VrNnj37to/XWLjdbpWVlencuXN2s7qurk5ut3vEk70Ndf78+VuulSzdXPt45syZcrlcUdfn5+fbj4PP51Nzc/Owk8AdOHBAfr9fFy9e1IoVK1RaWqrZs2erp6dH/f39unz5strb2+2TzgETSUbkGibxrmdiSi7erCn1kSOXzrl486bUR46cKblYtmFifeTIpXturNtJ9XGSI5fuuRs3bki6ORNwtO2mw3FOxtylS5d07do1hUIhTZ8+Xb29vXr22Wf1ta99TZ/+9Kdvm3/33Xe1c+dOffvb39YDDzygxsZG/d3f/Z3Onz8fdYKs4uJihUIhSdK1a9d08eJFe2mGoceakZGh6dOnKxgM6tKlS2pqalJTU5MeeughfeITn9DcuXMVCoV09epVhUIhXbx40a7Bmm36u9/9Tjt27NCTTz6p+++/X9euXdNnPvMZHTt2TN/5zne0bt06vfrqq8rJyVFXV5f+/u//Xps2bYra7pUrV+zGaF5enubMmaOrV6/q0qVLUcccuf9r165F1XLlyhX19vZqy5Yt+trXvqZp06bZWafTqTNnzigjI8N+TKz80Mckcr9XrlzRe++9F7Ukwle+8pVhuf/5n//RRz/6UV26dEnPPPOMnnjiCb3xxht67bXXhm3f2n8wGFRbW5uWLFky7D7WYxsMBvXggw/qwQcftI/n4sWLmjNnjiorK3Xt2rVhj8OlS5d09epV9fb26tixYzp27JgefPBBu/H77LPP6sknn7RPpPbGG2/Yz1OkdH0dkSM31lxGVlaWfWfrcqw7MSFniTVrSn3kyKV7zhJL3qT6yJEzJTfWbaT6OMmRm6i5sWwnHY6THLl0z02bNk3SzZmRI92eLsc5GXNLly7V0qVL7VxmZqZefPFFNTQ06Ny5cyPOPrUEAgH9+Mc/1re+9S099NBDkqRvfOMb9hqzra2tcrlcCgQCamlpsWfV3nXXXZo5c6akD99n/X6/qqqq1NfXp5KSEv3BH/yBHA6H7rnnHlVWVqqqqkper1c5OTmaPn267rrrLt1999165ZVXtGfPHlVWVmrOnDlyOBy6fPmydu7cqS996Utyu90KBAK66667JElf+tKX5PP5tHfvXvX09OhTn/qUduz4f+zdfVRU17k/8C8RcCIQxpdEMagdrWkNBE0Oki6nXoykQlMMhpBqUxViFG+bAvG3ok1CQcFi7tU2BCYmFUgC0dvqKqFOSlxgSoxN4bbEWTUk6I1vUxEVUtQxgziKZn5/jGc7Z154k5cZ/H7WcglnznP23uecPcM8Z599NuPXv/61mEbC398fgYGBmDhx9N7zzwAAIABJREFUIpKTk3HPPffgjTfeQFBQEPz9/TFq1Ch89NFHyM3NVewPeTRwSEgIvve97+FPf/oTsrOz8ac//QlPPfWU2M+yqKgopKamoqioCEFBQQgICBD1DAoKUuyT8PBwPPvsswgKCoKfnx8mTZrkNMcuAEW9QkJCoNPpFKNq7Y+3Xq8X68r7XG7/7NmzxYhd+ykn5LrK50tQUBBGjhyJgIAAp3NOfsibPE9vUVERWltbsXDhQsTGxiIjI0MxNcbhw4fFFBuALZl+/fp1MeLXk/sR4xjX0zgfq9VqBYAzZ85g4sSJHlfB/oqbPXs2fHx8UF9fPyjlDXbccD9+bF//ljcU7ZP/gPv0008HvDwev/6NY/v6t7yhat/s2bMB9LwPelv7Bqs8tq9/426n9j388MOwWq09+lvUG9s3GOWxff0b5+3tW7ZsGQ4dOoSXX34ZTz75pNPr3t6+7rB9/Vse29e/cWxf/5bH9vVv3HBrH+fYJSIiIiIiIiIiIvIyTOwSEREREREREREReRkmdomIiIiIiIiIiIi8DBO7RERERERERERERF6GiV0iIiIiIiIiIjs6nQ6SJLn9ZzAYFOsbDAbo9Xrxu8VigU6ng8lk6rIck8mEzMzMbtcjInKFiV0iIiIiIiIiuiUmkwnJycki8Wmf5OwLg8GgSKRmZmbCYrGI1/V6vVOy9eDBg4ptOK6TnJysSKDKr8+bN89p+wBQVFQEg8Hg9C87O9upvp999hkiIiJ63c7t27cjMTERarW62/2wePFiGI3GXpdBRMOX71BXgIiIiIiIiIi8W0VFBTZs2ACNRgOTyYSMjAyMGTMGc+fO7fW2ysrK8H//93+oqakRCU+9Xo/Vq1ejoKBALEtJSUFaWhoA2wjZ7OxsHDx4UCxzXEev12PLli3IyspCdXU16uvrUVtbi87OThw5cgSNjY2QJEnEpqamuq1jUVGR+NloNKK1tRUhISG9aqfBYEBLSwvCwsLE73V1dYr6X7hwAbW1tVCpVPjkk09QUlKCrKwsqFSqXpVFRMMTE7tEREREREREdEtWrFghflar1YiMjMSZM2d6vR2j0Qij0ahI4AJAQkICmpqasH37dkXiU6ZSqbBu3Trk5+eLUa6OoqOjUV9fD4vFgqamJiQmJkKlUqGzs9Pl+kVFRS6XO45GbmhoQGBgYK+SrUajEWVlZcjNzYVKpYLJZEJFRQXWrl2rWO/RRx8VP48ePRqBgYE9LoOIhj8mdomIiIiIiIio35hMJhw4cAArV67sdWxDQwM0Go3LqQnmzJmDiooKpykTZCNHjkRUVBTq6upcJmQvXLgAs9kMAJg8eTIqKirEaFlXejJiV07IRkZGQq/XIzc3V7FeaWmp+FkePXzq1Cls3boVOTk5op3dTclgsVjw7rvvYvHixRytS0QCE7tERERERERE1C8sFgu2bNmCyMhIzJo1q1+3PWbMGJjNZreJXQAIDQ0Vo3IdVVZWYvr06VCr1YiNjUV9fT20Wi3WrVuHxYsXK9ZNS0tzOTLYntlsxvbt2/Hd734XAQEBSEhIQEJCAgDbfiguLsayZcsUyVqj0YgNGzbg17/+NTQaDQDbFAyTJ092mYyWY9avX49169YhPDy8yzoR0e2FD08jIiIiIiIioltmNBqRlJSEqKiobpOifXH+/HkEBQV1OWK1ubkZEyZMEOuUlpaKh48BEPVSqVTIy8tDTU0N/vznPyM+Pl5MAxEfH+/0YDZX/1avXo3AwECRzO2OxWJBSUkJnn/+eVEfo9GIvXv3IjY2FkajEW+//bbLds+ePRtTpkzp1f4iouHP5/Tp09Zb2UBQUJC4lcGT4xISEuDj44Pdu3cPSnmDHddXbJ9nxPWVN7VP/mOnN0/H9ab29QXb5xlxfeVt7ettH/S29g1WeWxf/8b1lTe2b9GiRQDQo79FvbF9g1Ee29e/cX3lKe1bs2YNjh07hueeew5xcXG93m5vy/O0uL4ayHp+/vnnKC0txfr163HXXXf1ubxTp07hrbfewv/7f/9PbEdWVlYGAEhOTsaHH36IM2fOIDk5Wbzu7++PTZs2ITY2Fg888IDLddy1r6Kiwu26X3/9NYqKipCamqqok9y+U6dO4X//93/x4x//WLx25coV7Ny5E0888YRTO7ra7ocffogJEybggQcecFlPnp9DH9dXbJ9nxPWVx7bPesPp06etffH11197RVxkZKR19uzZg1beYMcN9+PH9vVveUPRvsjISGtkZOSglMfj179xbF//ljdU7ettH/S29g1WeWxf/8bdTu2Liorq8d+i3ti+wSiP7evfOG9v39KlS60PPfSQtby83OXr3t6+7nha+zo7O60vv/yy9cCBA/1S3qZNm6zLly+3XrhwQSzbvXu3Ytnu3buthYWF4vXLly9b165dq1jmuI79ups2bbKeOHFC1NNx3QMHDojfL1y4YF2+fLn1oYceEv9+9KMfWT///HOr1Wq1njhxwvrWW285lVFYWKhog+z06dPWCxcuWNPS0kQd7P3hD39wanthYSHPTw+JY/v6tzy279biOMcuEREREREREfVZZ2cnmpubnR429vTTT+PZZ59FRkYG0tPT3c4h6yg5ORmffvopYmJixLK4uDhs27ZNMQ1DaWmp4uFkr732GubOndvt9lUqFX72s58hIyMDX3zxhdh+VlYWgJtz2gJAfHw8Ro8ejdDQUBQUFCjmy+3raMGvv/4aL730EtLT06HRaFw+dO3f//73gExnQUTDCxO7RERERERERNRnd955p5gmwZ7ZbMb169dRUFCALVu2oLm5ucfz0do/iKynrzsmWruKV6vVos5msxlBQUEAbA8yW79+PXQ6HUaPHq1I/lZVVSm2MWPGDLz++us9ao/MYrGgqKgIX3zxhUiEZ2dnw2AwKNZ7++23YTQaodFoRDsG87ZzIvIOTOwSERERERER0YCQR7jm5eUNcU16RpIkVFZWit9dJaxlckJYrVZDo9EoXlOpVC5H3KpUKrzwwgt49dVXu6zHihUrellzIrod3THUFSAiIiIiIiIiIiKi3mFil4iIiIiIiIiIiMjLMLFLRERERERERLdEp9NBr9cPdTW6ZDQakZ6eDpPJ5PJ1T2uDyWRCeno6jEbjUFelW/b79tSpU13u575s01v15Jzqz/NOr9dDp9P1y7YA5TnoTefj7YSJXSIiIiIiIiIaFlwln+Rlp0+fHsKaeTdPS3oPNE9OKntLglXeh7/5zW8gSZLTP/mBgVeuXEFmZqZY7uo80+l0yMzMhMViEcuKioqctqXX612WJW/TaDTi2WefdYqT2cfbl6fX6zFv3jxIkoTk5GSPOi+Y2CUiIiIiIiKiAeOYJLNYLMjMzHRKqvSH/fv3Y/r06YqHmcnL7r333n4vb7jo6pgYjUYcPXoU0dHRbuM1Gg0KCwvFw/K8XWVlJWJiYnrdHscEeFpaGhISEvq1bq7O8d4yGAxOiVJX1Go1CgsL+1SWvA9feOEFGAwG8a+oqAhxcXEICwuDxWLB5s2bkZiYKF533F9GoxHV1dWKZXq9HlFRUWJ7hYWFMJlMSEhIUJRVXl4OrVaL6OhomEwmbNiwAc8//7xTnLzNpqYmEZuXlweVSgWj0Yhz587h448/hsFgQGJiIrZs2dLtvhssTOwSERERERERkde7cuUK6uvrMWfOHLHMYrE4LaPeaWhowPTp04dN0rY7JpMJR48eRURExFBXxYm3nM/u9qHFYsHevXuxcuVKqFQqNDY2Yvz48ZAkyeV2LBYLdu7ciaVLlyqWJyQkYNasWQCAadOmITg4GBcuXHCKr6ysRHJysjh3Q0NDMWXKFKc4k8mE+vp6LFu2zGkbGo0GK1asEL9HRETAbDYzsUtEREREREREw8fly5fFLdXx8fE4efIkDAYDkpKSUFtbi5iYGPzmN7/B6tWrUVVVhdTUVHFbs06nw86dO5GZmYmFCxcqbpOWR5Pa31ZtNBqxfPlyxe3oLS0tCAwMRFhYmFh29uxZp2UHDhxQ3G595coVl+1xvK3bfjSr0WjE4sWLxa3Zb7/9ttu5TXU6nVN59svs4+yXx8TE4MSJEwBsibJf/vKX+Mtf/oL4+HinW8Vl8m369utt3LhRrOe4L3U6HUwmk8tjIq9/6NAhxMfHuz0W8v5wNXWBvH5ycjJaW1udRgXbzwnreEt+UlISLl68KNY1GAzitfj4eHHs9+zZA51OJ/ZdcnIyWlpaFOeivK5cnk6nE7fWO45SPn78uGJErH25ycnJ+Prrr8V+3rlzJyRJQnl5OTIzM1FaWorc3FxRpuMIXvtzyt0t/a7OF5nj+Ww0GsVxliQJubm5XW7LYrFAr9cjNTUVVVVV0Gq1on7yugsXLhTHpKtpHxz3i/2xctyHssbGRgQGBorldXV1GDdunGiD4z6prq5GYGAgpk+f7lS+fVlBQUEICQlRLDcajWhvbxf7Sq1WIyoqCv/4xz+c6nj8+HEEBgZiy5YtbqdpkDU0NCAoKAgqlcptnQYTE7tEREREREREdMt27NiBlStXwmAwIDY2FtXV1SLppdVqUVNTgxdeeAHbtm1DXFwcioqKUFZWJkbTyfF//vOfUV5ejoKCAnEb9oQJE9zeqi2rrq7G/fffr0i4VFZWKpadOHEChw8fFtuaMGECysrKnLal1+tRX1+P2tpacUu3XB/5lu6XXnoJBoMBBQUF2L9/v8s66XQ6tLS0iO3k5eXhyJEjimVpaWmiTPvlRUVFim19/fXX2LdvH8rLy1FTU4Pm5mY0NjY6lXnx4kXFemfOnBHrFRcXK257B2y39rs7Jo2NjWhvbxdJs7/97W/iGMvb72q+0eLiYrGPg4OD3a4HAGVlZYrjnJ2dLV4zGo3Yu3ev2Dc6nQ75+fmi7NLSUsyZMwcGgwGRkZFYuXKlqOeqVatQUlIiktvyuh9//DGys7NRUVGhSHxXVFSIEbHyyFO5TpGRkSIxePHiRfz73/8WFy/y8vKQkpKC7OxsVFZWOiU19+zZg4qKCtTU1MBgMCj2s0yv12Py5MmivKioKMX5aX8+y+dhTk4ODAYDamtrERcXpyjPcVvFxcVISEgQ0yHU1taK6Qvk/fc///M/OHr0aJdz+JpMJpSVlaG8vFy0RT6+jvtQJo/Wtb9I0NLSgsbGRrGdyMhIbN++HYAtcVxfX49Vq1Y5lW+xWLBx40ZIkoSKigpkZWU5JVorKyuxYMECp+WFhYWQJAmpqamYPHkyAKC5uRm1tbXinHGcpkFmMBhQXFwsRhx7AiZ2iYiIiIiIiOiWrVq1SiSz5syZg9bW1l7drmwfr9FoMHv2bJw/fx4RERGorq5WjFDVaDR49913xfomkwnHjx9X3Prt6nbwqVOnKm63jo+Px6VLlxT1lG93T0xMFMkbuT4NDQ04fvw4QkNDMWPGDAC2kYCJiYlO7ZHLd0wCTZkyBc3NzVi9erViZKxjmdOmTcPUqVNF3F133SW2pVarERkZiebmZqdyg4ODFes9+OCDaG5uhslkwoEDB5CamipGJZaWlqKpqcntMamrq0NUVJSo06OPPorz58+LEbUnTpxweQs8AGzZsgUAROK6K/Lxk5N+gO2WdzlZ2NDQIC4QuCo7JSVF3M4/Z84czJw5UySjQ0NDFWXZr+t4W/3Zs2dhNpsxbdo0ALZju2jRIjH6t7S0FGfOnBH72b6+XbFYLDAYDEhPT3c7pYV8DuTm5ipG4Mr9yPF8ls9DeUSqSqVCVFSUojzHbbW0tLjsk5IkYcyYMYiPj8dPf/pT1NbW4vz5827bo1arMX36dCQlJTmNbHXchzLHiwSyhQsXivMrPj4eR48eRVNTE8rKytwmUFUqFbKysmAwGLBy5UqkpqYqEtHyvND2dTAajXjvvffwxhtvwGAwoKamBhUVFaL+sbGx4v0kLCwMoaGhOH78uIiXk707duy4pfmN+5uv2WwWv9j/3BveEtfXWG9pH+MY58lxfY33lvYxjnHeEtebbXhj+xjHOE+P6+l2hrqejGOcp8ddv34dgC154W67nlDP2ynu6tWriuPR0dEBAGhvb8elS5dw7do1tLe3Y8SIEbhy5Qo6OzvR0dEh1neMb2trw6lTp9DR0YH77rsPf/jDH3Dw4EFotVo8/fTTSE1NVZRfXV2NadOmYdy4cWIb1dXVmDJliljmWA/ANlKvvb0d7e3tog7t7e1O9bOvY0dHBzo7OxX7xWKx4OrVq4r129vbce3aNVy6dEmx/K677sLrr7+OkydP4umnn0Z4eDjS09OdyrSP9/PzAwDFthz3WVdlyu0KCAhAWVmZmGfUPs6x/JMnT+Lw4cN44oknYDabcfHiRbz44ot48MEH8fHHH+PixYvYtGkTLl26BABi3wLAsWPHMGXKFHR2dqKtrQ0jR450edzl/SbH2dfb/nhZLBaXx93+2Nife52dnYo2yb87HifHc6KiogJarRYjRoyA2WzGnj17UFZWhs2bN+PFF1/Enj17cOLECbf72fGY2J9Tct0c+5Ljeffaa6+J+WNlnZ2dTuezYztd7U9327KPbW9vx+bNmwHYRjObzWa8+eab6OjocDoH7duckpKCn/zkJ9i8eTOysrKwefNmTJkyxWkfArZpNnbt2oWFCxeis7NT1HfMmDEA4HQ8PvroI9TW1qK2tlZR93/+85+iHDlu3LhxmDlzJurr6zFu3DgAcFmH+vp6zJw5E5MmTYLZbMaIESMQERGBY8eOYeLEiTh27JiivvJ+amtrw+bNm8UoX/v69tRAvl/7BgUFiZXln3tbiDfEyXob6y3tYxzjPD1O1pt4b2of4xjnLXE93cZQ15NxjBuucT3ZjifUk3GM8/Q4OSmnUqlcvu4p9byd4vz9/RXHY9SoUQCAwMBABAQEwNfXF4GBgQgKCoKfnx/8/PwwatQosb6/vz/27NmD2NhYALakYmtrKx544AE0NDQgLCwMc+fORVFRESoqKnDmzBnk5eUhJycHISEhaGhoQFxcnNiexWJBQ0MDEhMTxbKAgADx1PuEhARYLBZUVVVBkiSMGzdOtGHcuHHQarWoqqrC7NmzoVKpYDQa8dlnn4mRuYcOHcLhw4cxd+5cmEwm7NmzB5GRkQgKChLzk6alpWHGjBnYt2+fGLX6l7/8BYBtNG54eDi2bt2K/Px8BAYGYtKkSYoyP/roIzQ1NSEgIACBgYGiDfb7TKVSwc/PDxs3bkRUVBSio6Ph6+urWA+w9RV5lLFjfaZNm4aQkBCnY9LY2IgZM2aIEa9tbW244447xD61rx8AcYwB4Nvf/jZyc3Oxf/9+5OfnIysrC0FBQZg0aRIOHjzotN/GjRuHwMBARd327duHS5cuITAwEFFRUfjggw/Q1tYGjUYDk8mEqqoqLFmyROwL+3PPz88PgYGBUKlUTr/L65rNZsW5ef36dZw8eVJxznz11Vf44Q9/iPDwcFHf7373uwgMDHS5nx37gf05JUmS4vjW1tYiLCysy/POYDCgo6NDjBa3r1toaCgOHTqEkydPQpIkp/3pWJ48MlWSJMU+sVgsaG1tRXp6OsaNGydGsy5evFjRTvufr1+/jsbGRmi1WuTm5mLjxo24cOECQkNDnfYhYLsY5+fnhwceeECxfN68ecjPz8frr78OtVqNffv2YcaMGUhJSUFKSopYz2AwiCkXANsUH0888QRCQ0MVfTMoKEgkt6OiohRlyefQ97//fTz88MMwmUxoaGjAvHnzMG3aNJSUlODIkSOQJAlHjhwR7z/Hjx+Hn58fYmJiPO59FwB8e71lIiIiIiIiIqIeCgkJQVBQEGJiYpCSkoK0tDRERUUhNTUV4eHhKCgoAABER0cjIyMDX3zxBUJCQqDT6aBWqxEWFua03J5867f97dHubgefOnUqzp07J27FT0lJwWOPPeZU54SEBDQ1NUGr1Yo26HQ6UUZOTo4YvRceHo7o6GgxctXeqlWrxFyggO127jFjxqCkpARVVVVimVqtFuvKZT733HOKqRj6g2N9srOzRZvsj8nmzZthMBiwePFiEStPR5GUlNTj+tnvx6KiIsTHxyMtLQ2lpaWK/aZSqZCeni6mPACAtWvXiqkYNBoNMjIyRNn2501/cfUQLlf1bW1tdbuNOXPmIDU1FcXFxU7n6WOPPYavvvpKHN/s7GynaRkczzs5wenqfNZoNF2eh47lyX0PsF1YaG5uhlarRXZ2NhITE8V2fvjDHyrm6nVFrVajra1N0Y9mzZqFI0eOuHyQmTylgeO0CvLD2mJiYgAAcXFxInnrjkqlQnx8PFJTU8WxKCoqEufx2bNncfbsWYwePVoRJ59D9qO+i4qKRBs2bNiAtLQ0nD17VvH+09zcjKqqKtFfAef3gyFlveH06dPWvvj666+9Ii4yMtI6e/bsQStvsOOG+/Fj+/q3vKFoX2RkpDUyMnJQyuPx6984tq9/yxuq9vW2D3pb+warPLavf+Nup/ZFRUX1+G9Rb2zfYJTH9vVvnLe3b+nSpdaHHnrIWl5e7vJ1b29fd4Zj+woLC627d++2Wq29b58ca1+e/fb6s57u4npTnjccvwMHDljXrl1rvXz5cq9jvaF9jnGXL1+2vvzyy9YDBw50GzcU7evN+XWr5fW1ff/+9797vA/t8f3z1uL48DQiIiIiIiIi8kquHpDmall/slgs2LlzJ65cuQLA9lCmTz/9dMDKGwp1dXWQJMnlg6uGI3cjvD3BxYsXB/R87i8tLS0euw+HM07FQEREREREREReSa1Wo7CwEMDNZ3vYLxsIKpUKDz/8MJYvX+7yVvDhIC0trc8PfPJGGo1mQM+ZWxEcHOyxdbM3ZcoUr6jncMPELhERERERERENKXnuT2+h0Wiwa9euW3q4OxHRreJUDEREREREREREREReholdIiIiIiIiIiIiIi/DxC4REfXK22+/DaPRONTVIPI6RqMRb7/99lBXg4iIiIiIhgkmdomIumGxWPDKK68MWjLTaDQiPT0dJpOpV3EmkwmZmZndxhmNRsTHx8NgMDi9ZjAYoNfrYTAYIEkSJEnCs88+i7/85S+Ij4+HJEnYunUrkpKSIEkSMjMzYbFYFNt+5ZVXYLFYcOXKlT7vt+7a0tO20tDT6/XQ6/WDVp5Op+tTeTqdzmWfcFRUVOR03gO29wmdTofW1lZkZmaK/qPT6aDT6TBv3jwkJSVh69at4jV35XV3fst9VP7Zsb16vR4HDx4UP8vlufoXHx/vso/a7w+DwQCdTtftvnFX166Ox4cffjio5wd5vsF+zxgo9v3mVj6zuut/RqMR+fn5Tu9JREREdHvgw9OIiFzQ6/XIzc1VLCsvL3e5bnR0NJ566ilUVlYiKysLKpUKJpMJGRkZiIyM9KgHQVgsFpSUlOD5559HRUUFpk2bBpVKhfz8fCxZskSsJyedjEYj3nrrLXz/+9/Ho48+CsA2YveRRx7B6NGjsX37dgC2L551dXWIj48X22hpaQEAhISEONXDcf9mZ2cjISHBbZ03btyIqqoqp9ccl8XFxYljQEPj5MmTePHFF3H27FnFcsf+BNjOjd/+9rd49913ERcXh7lz5wKwnR/FxcXQ6XQe9XRpg8GA1tZWPPTQQ6iurkZCQoI491etWgUAGDlyJPLy8pCXlwedToc5c+ZAkiSkpKSgra0N+/btw4oVK0Tiqi/nt73Y2FgUFxfDZDJBrVY7bSMhIQEJCQkwmUzYvn07Vq1aJfqHyWTCli1bMHr0aFGX/Px8LFu2TLGNuro6zJkzx2nb8vvcF198AQAIDw9HQUGBy3rI+y81NdXla47nR1FRESRJcrkuDS9GoxFpaWk9es8YP348XnnlFbz66qsIDQ11+X4vn2c9OYfsP4scPz8sFgt+85vfYP/+/WJ9+22aTCZkZ2djzZo1ivcpvV4Pi8WCb3/722LZ8ePHMWHCBKe+4dj/x48fj61bt7p933Psc45tsZeSkuJRf38QERHRwGBil4jIBTkZAkCRnHHlzJkzii+kFosFW7ZsQWJiottk5VCprq5GYmIiJEkSiVk5IeXIZDIhPz8fP/3pT1FcXIzS0lLx2tatWxXb/M///E+XZZWXlzslxOPi4vDggw+KL8h6vR6HDh1CcXGx0xf7qqoqpKSkiESZfd22bNmCtWvXii/KZrOZTyX2AFOmTEFlZSWAmwn/rpILjqPMDAYDKioqsGPHDrcJwqFgMplQV1eHdevWITAwEPn5+YiIiHC7vpxkGTNmDOLj4xXntn3/6e787ujowMSJE92Wo1KpMGfOHOzfv7/L95sLFy6gvb1dsWz//v0uk032jEYjqqurFf1f9uqrryIyMhLbtm1DW1sb3nzzTWzZssVlklpO1DuOUi4rK4Narfa490oaPBqNpsfvGWazGdevX0dwcDBOnTqFxsZGxWezxWLB3r17ERYW1m25er0e9fX1qK2thUqlgsFgENuTk81PPfUUXn31VQA3k6q9/Wy3WCyoqKhAVVWVUz9aunQpJkyYgJqaGqhUKmzevBk7d+50eSG5tLQURUVFKCsrUyw3Go3Yvn071q1bx4uaREREtyEmdomIumA0GtHe3i6+JLpKKDoqLi7GhAkTPC5RsWfPHqhUKvElWJIk1NXVYffu3S7X3759O5KTkxESEoKHH35YfNF2HLG7atUqNDY2Km7nlkc2fvDBB9i0aZPLEU327r//frz00ksAbn5xt9/P7kb6OSaQOMrPc8gJFvuR4N1dJDEajSgoKEBOTo7HJXXl83HEiBFQqVRYsmQJ8vPz8fjjjzutbzQacejQIaxZswYqlQqVlZUwm81OI3ZDQ0PF6PhbOb/DwsJQV1fndtSurLa2FgsWLIAkSbBYLKivr0diYqLb9eUR/jk5OWhubkZTU5Mi4WYymdDQ0KCIWbt2rSJJLff1hIQEWCwWZGZmukz82o/O5Mj721Nv3zMee+wxVFRUICxpOm9fAAAgAElEQVQsTJwr8gWUGTNmdFteU1MTEhMTRax9GZWVlVi1ahVmz54tlqnVamzYsAHr169HRESEGOnenerqakyYMAHl5eXIz89Hbm6u6KcWiwXFxcWK9ZcsWSI+DwHnZLerO4rk5bKQkBCPu+OBiIiIBoav2WwWv9j/3BveEtfXWG9pH+MY58lxfY0fyvZduXIFb775JhYuXIjOzk50dnaivb1d/D9ixAixbkdHBzo7O7Fr1y6cOnUK69atE9s6efIk3njjDbz88ssIDg7GlStXsHnzZixcuBCzZs0Sv9fU1IjtzZgxA+3t7fj888/x5z//GevWrcPIkSNx8eJFbNq0CT//+c8xZcoURd3b29tx8uRJxMTEKJbHxMRgyZIl+PLLL3HkyBHFF8Lvfve7uPfeewEAly5dQkdHBywWC5qbm/GPf/wDpaWluOeee/Dzn/8cb775JlpbWwHcHHEYExOD9vZ2dHR04OrVq7h06RIuXLiAmpoapKenIyAgAOvWrXOqs8ViUSSy1q1bh127dmHixImYNWuW036+77778PHHH4v1L168iMLCQqSnpyM4ONjtMewpb+lH/RHXm23cSnl79uyBv78/xo0bJ7Zz9epVdHR0OPWzzs5OmEwmbNu2DatXr1bEFBUVITQ0FI899hgA4ODBg4o+8fnnn2PhwoWK8tetW4e2tjZFPwNsFzeam5vFuWdfj6tXrzolV8ePH4/Nmzfjk08+wciRI536VlRUFD777DMAtv539epVtLe3o76+XoxWf/rppwEAv//970Wc3H9ee+01mM3mLs/vO+64QzES3Ww2w2KxOO3HlJQU8fqZM2cwbdo0xevNzc0IDg5GfX097rvvPly8eBEnT54UbX7ttddEMuzSpUu4evUq/v73vyMiIgL33Xcf7rvvPuzZswe//e1vRUx7e7t4nwBs71unT5/GW2+9heTkZIwcOVKMyJbr8uKLL+LFF18U9aqoqIBKpRLHVya/53bFG/tfb7Yz1PUc7Lievme0t7fj2rVruPfee/HXv/4Vx44dE58tFRUV+P73v4/6+np0dHRg165dMBgMWLdunYiX31Puuece7Nq1C1OmTMHIkSPF6xcvXsThw4fxyCOPONUzKCgIEyZMQHNzM/z8/HDt2jVcunRJsY58znd0dODUqVO4evWq6A+pqal4+eWXFX8PnDp1Sry3jB8/XiSsFy9ejODgYPH5Kpcxf/58zJ8/X5R38uRJVFRU4Oc//7miHa72cU+OQ095Qtz169cB2Pa5u+16Qj0ZxzjGMY5xjBvIOF/5y0Jfb2H1ljhZb2O9pX2MY5ynx8l6Ez/U7fvoo4/Q2tqKSZMm4Re/+IViTjs5CRsSEoKsrCyMGjUKNTU1OHToEHQ6HcaNGyfWDQgIgK+vLwIDAxEUFAQ/Pz/4+fkBsO2P0tJSTJo0SfEwpIqKCgQGBmLUqFHw8/NDYGAgVCqV+BITEBDg1Mbr169jypQpeP31112O2rvnnnvwpz/9CSUlJWIe4O3bt2PZsmV48803ERAQgCtXrkClUiE0NBQ7duwAYEv4hIeHY8+ePQBujti1Hwk0atQo+Pv7IyAgAKNHj8YzzzyDF154AYcPHxbr/OMf/wBg+1KtUqkUUzEAN+cK1Wg0CAwMFO1ua2tzOf+i/XGQ9WWU0lCfZ4Md19Nt3Ep5bW1t2L59O3JyclBaWqq4/dg+wZmdnY3Y2Fj4+flhw4YNSElJEfPsyvz9/aFSqURd7PvE2bNn8c4776C8vBwajUbcKq1SqcQ5NGrUKBGrUqng7++PoKAgp/b5+/u7HREbHh4OvV6PH/3oR7jvvvsQFBQkRtwCtjloAwMD4e/vj8DAQCxevBiLFy+G0WgUI3RTU1MVI3Zl7uYXBdyf3yqVStEuexaLBdeuXYNarVa8fv78efz4xz/GuXPn0NbWBo1Ggx07dojRyA888IAYuRgQEAB/f3/MmTMHzc3NmDdvnqKM3//+94iLi0N6ejoefvhhlJSUiKkY7r33XsybNw+1tbVISEgQ2wwKCoJOp3M5pQMAbN68WfF7d/ODDnU/upW4nmzHE+o5mHHydALdvWesW7cOsbGx8PX1RWhoKGJjY7Fv3z6kpaXBaDTi5MmTePbZZ3Hw4EGMGjUKsbGxqK2tRUtLC8LDwxXrqFQqNDQ0IDY2VjHP+/Xr1+Hr64uAgAAAcHr/nDRpEs6fP48HHnhArGe/jkqlgsViwahRozBp0iTEx8cjJSVF0ccTEhLEHOOTJk1STMUwduxYJCYmYu/evVixYoX4fA0KCupynmrHO2G6m/Pa1XHoKU+Jky+w239GeGI9Gcc4xjGOcYwbyDhOxUBE5ILRaERxcTHGjh0LtVot5rRzNRWDPMduXFwcHnvsMaSlpfU4uWgymXD06FGsWbNGLIuIiHBK6AwEV3NuyuSE1NNPP43Lly/j+PHjSEpKEq/LIw7lRJMrEydOxOuvv47jx4+jubkZCQkJXT7ZW54rtLa2FrGxsWK5/fyLAERC+u6778b06dMhSRJMJhN+8YtfOE35QIPvypUrKCkpEUmMtLQ0kaBzdVu1PLrtv//7v7Fv3z7odLoeP/CnoaEBM2fOFMdcrVYjMjKyP5vjVlNTk0jsOpIvfpw/fx6jRo1ymn5A7j9y8rKr8zskJASjRo1CRkYG0tPTodFonKY/sHf27Fm0t7c7TWPQ1NSEOXPmICIiAjt37hTTRGzfvh1RUVFQq9VO8x3L5AR8cXExli1bhgsXLmDnzp1u62A/NYQ9+3MBsCWirl69ipaWFvFQN3neU3dzf9PwI0/50ZP3DLPZLC5wArbPy/feew9GoxGVlZWIiYlRJDLVajViYmJQXV2N8PBwNDQ0YPr06WKdvLw8rF27FhkZGWIe6K6mWLBYLGhpaXH5MMGuaLVarFmzBtXV1QgNDUVYWBjy8/Pdrq/RaLBv3z7FFEfAzQebyuTP6itXriAuLg4ajQZGoxHr16/Hhg0bPGpKGyIiIhoYTOwSEbmwb98+5OTkoKKioldxkiRh1apV2LBhQ7cjZYaKwWBAeno6AFvCxtU8liEhIWhtbcXf/vY33HnnnXj00UfFl0lXI3bPnz/fL3WTJAn33Xef4ou7PaPRKOYoVKlU2LhxI1JTUxEeHo7/+q//cptoo8Fz+PBhREVFYcKECb2KGzlypEiw6PV6j5ujGrj5BPuamhqEh4dj2bJlOH78uNN6M2fORGVlJQICAvDII49gyZIlePHFF12O2LXn6vyuqqrqcuSdnAjNysoCAJSUlKC5uVmRpDWZTGhpacG0adOgVquxYMECFBcXY/LkyQDQ7/tapVJ1m5zX6XSYPHkytFotzp49C61WC8D2nmQ/Ry8Nf42NjX16zwBsCdDZs2dj3759OHr0KOLj453WiYiIQHV1NVpaWnDo0CHFHL4AxMVbvV6PyspKpKWlYfr06WhoaFDMsQvYLpycOnUKY8aM6XVde0t+n3D3+So/aDIrKwttbW3IzMzEF198gbi4OHFnDBEREQ1/dwx1BYiIPNGKFSswbdq0PsUmJCQgMjISW7ZsgcViwejRo3Hx4kWRAGpsbBSj9+TbB+1H7FVWVuLixYsAgDFjxuDUqVNiJNP+/fvxr3/961aaJkb8GAwGhIaGori4GC+99JIiUatSqbBgwQL88pe/xIwZM6DT6SBJEiRJwtatW5GUlCR+72oUbldSU1MhSZLLh8C4otPpsH79eoSEhEClUkGlUiErKwtxcXGIjIx0mmuXhsasWbP6nCiUH05UXFwsLiRMnjwZ9fX1sFgs4unystDQUPz1r38Vo9qMRiOqq6sB2M7hCRMmoK6uDoAtudnbCzWO5HPOYDBg27ZtePPNNzFmzBinJGZYWBhaWlpw/PhxXL58GfHx8Zg3bx6SkpKwdetW0Xfi4+NF3d2d39HR0YiMjFQkdZuamkT/aWpqQl5eHlQqlXhwY3p6OgoLC0Vy135ULgBMmzYNBw4c6JeRsQcOHIBWq0VCQgKam5u7Xd9oNCI+Ph5HjhwRF2IkSUJRURFCQkIQERFxS/Uh7yNJ0i1dXIiPj0dFRQWmT5/u8o4NjUaDadOm4Y9//CPa29sREhICi8WCV155xWlErP02i4uL8eGHH4plJpMJGzZswJNPPtmvd4a0tLQgJiYGWq0Wf//737tdX34IYUFBAaZNmwaVSoXg4GAUFBQgPDwcUVFRTOoSERHdRpjYJSIaAHKyZPXq1QCAxMREkYjZu3cv4uLiANgSRWvXrsWBAwdEsufuu+8WSUp5NJKcSD137hy+9a1v9Vs9m5ubu72l9LXXXkN8fLxIBj/33HMoLy8Xv7sbmXfmzBnExMQgNTUVubm5kCRJMW9iUVERDAYDsrOzuyxfTgTNmTMHhYWFCAwMxIkTJ8QX77y8PMyZMwfz5s1TJMrIO2k0GuTk5CA1NRV6vR7R0dFobm6GVqtFUlISHnjgAbGuJElYsmSJ6B8lJSVi5CdgS85UV1dDkiRkZGQgOjq63+ppsVgQGBiIkJAQt+tUVVWhpqYGlZWV+Pjjj1FeXo7nnntO9B35gk5X5/cLL7wgbkWPj4/Hl19+iZaWFmRnZ4v+J/cRwHYbu/xeIifIW1paxPQmOp0OS5cuxYYNG7By5UokJSU5zc3pKDc3F1qtFqWlpYiJiUFSUpKYxiUyMhK1tbWKOYfd0el0KCkpQXl5OR599FEAQFlZGeLj4zFmzBiUl5ejpKTkli4Y0e0nJCQEM2fO7PKzLCoqCqWlpUhMTBQXTn72s59hw4YNor/YX+iQ56CuqqoSr8sPOLN/H7l48aLiQmdmZqbLh/7V1tZCq9UiNzcXqamp0Gq1qK2tBQBMmDABNTU1qK2txfe+970u22owGJCUlISVK1ciJydHLJs3bx72798vpo2SJAnJyclO06EQERHR8MOpGIiIurFlyxbF/JgAFL9HR0dj06ZNinlDVSqV4nbihIQEpxFJ8kPl7OfwldnfKuo4L+VTTz3V5YOIHOsK2Oby/MlPfoKWlhZF4ku+xdt+W3LCtaKiArW1tfjss8+cHu4kzxFqvw1JkhRJVXmOXfuRhnKyxn5f2P9sX4+UlBSo1Wqo1WqRAJNHZLa0tKC8vFyMSpIkCR9//PEtPVyT+l9dXZ3Tg37sz1l5jua8vDzFQxYd55Hsqn/84Ac/QHJyssvyHednlrl7AJGr/iSf36GhoU4x2dnZOHv2rOgf8gWbjRs3IjExEXl5eWK0uz37/pOdnd3l+X3mzBmn/WH/3iI/bHHHjh2KvhYTE4Pf/e53KC8vR2pqKhobG5GamoqioiLF+0llZSX0ej0kSUJ2djbWrFnj1I/sHywl13Pnzp0IDg4W2woODhb1sn8gnP083PblNjU1ITc3F5s2bcJLL72kaBunYrh9dfeeMX78eGzduhWFhYVimePnLQCXFxzj4uIQFhYmfnf12WtPrVbjt7/9LSZOnCiWGQwGxMTEiPcFd/FmsxlHjhwRv8tz7MqfWRaLBfn5+fD391fUVe5/8oMg5Ye2FhUVAbC9N8rvFwaDAVu3bkVKSori88/V3xtEREQ0fPlYrVYrYBtZZf+HS0956lPhHM2ePRs+Pj6or68flPIGO264Hz+2r3/LG4r2yV8yPv300wEvj8evf+PYvv4tb6jaJ88V2dM+6G3tG6zy2L7+jbud2vfwww/DarX26G9Rb2zfYJTXlziLxYLs7GwxZUhveEP7biXO29u3bNkyHDp0CC+//DKefPJJp9e9vX3dYfv6tzy2r3/j2L7+LY/t69+44dY+TsVARERERETDjsFggFarxfjx4zmKlYiIiIYlTsVARERERETDjjyNif1UL0RERETDCUfsEhEREREREREREXkZJnaJiIiIiIiIiIiIvAwTu0REREREREREREReholdIiIiIiIiIiIiIi/ja/8wgb4+WMBb4voa6y3tYxzjPDmur/He0j7GMc5b4nqzDW9sH+MY5+lxPd3OUNeTcYzz9Ljr168DACwWi9vtekI9Gcc4xjGOcYwbyDjfoKAgsbL8c28L8YY4WW9jvaV9jGOcp8fJehPvTe1jHOO8Ja6n2xjqejKOccM1rifb8YR6Mo5xnh43YsQIAIBKpXL5uqfUk3GMYxzjGMe4gYzjVAxEREREREREREREXoaJXSIiIiIiIiIiIiIvw8QuERERERERERERkZdhYpeIiIiIiIiIiIjIyzCxS0RERERERERERORlmNglIiIiIiIiIiIi8jJM7BIRERERERERERF5GSZ2iYiIiIiIiIiIiLwME7tEREREREREREREXoaJXSIiIiIiIiIiIiIvw8QuERERERERERERkZdhYpeIiIiIiIiIiIjIy/icPn3aeisbCAoKgtls9vi4hIQE+Pj4YPfu3YNS3mDH9RXb5xlxfeVN7UtISAAA6PX6AS+Px69/4/qK7fOMOFlv+6C3tW+wymP7+jeur7yxfYsWLQKAHv0t6o3tG4zy2L7+jesrT2nfmjVrcOzYMTz33HOIi4vr9XZ7W56nxfUV2+cZcX3F9nlGXF+xfZ4R11ee2j4fq9VqBYAzZ85g4sSJvS7IbDYjKCjI4+Nmz54NHx8f1NfXD0p5gx033I8f29e/5Q1F++Sk0qeffjrg5fH49W8c29e/5Q1V+2bPng2g533Q29o3WOWxff0bdzu17+GHH4bVau3R36Le2L7BKI/t6984b2/fsmXLcOjQIbz88st48sknnV739vZ1h+3r3/LYvv6NY/v6tzy2r3/jhlv7OBUDERERERERERERkZfxHeoK0NDLyclBXV1dr2KsVit8fHx6XVZf465fv44RI0YMWnlWqxVqtRpFRUVQq9W9jicCuu9bg92PPKX/BQcHs2/RoNPpdKisrBS/3679z5W7774b27ZtQ0BAQK/LIRpo9p+lw7H/9TWOn6VEREQEMLFLsN2We+3aNf5haMdkMuH48eM4duwYIiMjh7o65KXYt5yxb9FQ+eSTT3Dp0iWMHz9+qKviUVpbW9HW1obW1lZMnTp1qKtD5ISfpc74WUpEREQyJnYJAHDnnXfivffeG+pqeIz169crRnYR9RX7lhL7Fg0lPz8/9kcHycnJ+OKLL4a6GkRd4mepEj9LiYiISMY5domIiIiIiIiIiIi8DBO7RERERERERERERF6GiV0iIiIiIiIiIiIiL8PELhEREREREREREZGXYWKXiIiIiIiIiIiIyMswsUtERERERERERETkZZjYJSIiIiIiIiIiIvIyTOwSEREREREREREReRlfs9ksfrH/uTe8Ja6vsd7Svr7GffPNN7jjDub4Xeno6Oj1fvWW4z4U/a8v8d7SPldx7Fvudde3POH4Dde43mzDG9vnzjfffNOnbd8uLl26JPajJx6/4RTX0+0MdT09JY6fpe7Zf5Z66vEbyLjr168DACwWi9vtekI9Gcc4xjGOcYwbyDjfoKAgsbL8c28L8YY4WW9jvaV9txLHP5bdGzVqVK/2qzcd98GOk91O+5N9y72u+panHL/hGtfTbQx1Pfs7jv2xawEBAQgKCvLY4zec4nqyHU+op6fEse+6J3+WevLxG8i4ESNGAABUKpXL1z2lnoxjHOMYxzjGDej3nF5vmYiIiIiIiIiIiIiGFBO7RERERERERERERF6GiV0iIiIiIiIiIiIiL8PELhEREREREREREZGXYWKXiIiIiIiIiIiIyMswsUtERERERERERETkZZjYJSIiIiIiIiIiIvIyvkNdASLqOx8fH6+IGzFiBO6+++5BK4/Ikw1F/wPQpz5IRDa32v8AYNy4cQNeHhERERHdXpjYJfJigYGBXhE3fvx47NmzZ9DKI/JkQ9H/APSpDxKRza32PwD44IMPBrw8IiIiIrq9cCoGIiIiIiIiIiIiIi/DxC4NGzqdDnq9fqirQcPUV199NdRV6DO9Xg+dTjfU1SDqV+fOnRvqKvQJ+yPd7i5evDjUVegT9l0iIiLyRJyKgfqVyWRCRkYGQkNDkZWVBZVKpXjdYDAgNTUVRUVFkCRpiGo5HDQgX3oGO7pdbyneMaxBhKstFEioiTZgzaxebHv5OzBk3NjawXxI+2NgiK6B9Ky8thZZ6zXYmOOmZtos7C2ci0/SF2Bjbdc1167fi8LHxwI4h93drq9F1p5CLBrf1Tq3ZsuWLWhra8MjjzyC+fPnIzQ0dOAKo2GhoSAfyFiDiIP5SG9ajsLHTyM//QSWF87FJ+k5QKbjOXsOu9PfxdRCW8zNfuVg+TswZAD5Ugk0Tue93Tbsl76fjgV/mY+9hYswVlnLG3VyXO75fvWrX6GzsxOSJOGJJ57AhAkThrpK5GUGso++g2fwzLuOL7j6jHT/+dVQIOGZ41ku+q13W716Ne666y788Ic/RHR0NMaMGTPUVSIiIiLyWr5ms1n8Yv9zb3hLXF9jvaV9fY375ptvcMcd/Td4Ozg4GKdOnUJjY6MieWuxWLB3716EhYX1W1kDraOjo9f7daCPX1BQkO0HbXdf9hqQL9Xc/LV1N9LzgPXdfkGMwBqDAWtuxMc4JIYbCtJxYkkhFtmHiERTDaY+vgaGx9coN6ko+xwcv8g6JpnPvZ+OHBE8FosKDcryuiDvx/4+Dp2dnWhoaEBDQwMKCgrwne98B3PnzkV0dDTUarXLuP7uW8NJd33LW94/XcX5+vrizjvvRERGDPLTd+PeFQDwCfIlI2IMazAWDTBiPpZ3cyHi5sUNOwfzIe0HbP10PXanp2P3oy4upkh2vy9/B4aMQhgm50OS8vGOYQ3ufT8d704udHFhx+by5ctu29cTgxF37do1/POf/8Q///lPlJSUYMaMGfiP//gP/Md//Afuvfdep/W/+eabPtXpdnHp0qUBe//0tLjLly8PeB+NyNiLrON2yeEbyeO5yLG7SGq7sDLXXVIX72DvoyVYUDD15kVVuzZcu3bNZb08/ThcvXoVBoMBBoMBeXl5mDlzJubOnYu5c+finnvucVqfn6Xu2X+WevpxH4i469evA7B9x3C3XU+oJ+MYxzjGMY5xAxnnKyeJzGbzzYRRLwvxhjhZb2O9pX23EjcQfyw/9thjqKioQFhYmBi1e/bsWQDAjBkz+r28gTJq1Khe7dehOq/7asezkmJk7tK37JOrJcBbhYhwMwLQycEaGNcv73odoRYbH5Ow0X7Ru8q6aNf3aENOgoKCBuQ4+Poqb3D48ssv8eWXX6KkpATf+ta3EBsbi/nz5+Pb3/62WIdfRN3rqm950/un+7hzYuT7jhujzWsB7EjX4J1HP8KO2lrskG72gKUvLsWO/7rRA6QdWLp8KWrfXQApx2nDwPKYGz+MxaLCQgDAInExpYv+OmsNDAYAaEB+Ti124Gafu1mXpdhrWIPgO+/ENY/an85GjBih+P3w4cM4fPgwtm3bhu985zuYP38+5s+fj6lTpwJgf+xOQEDAgL1/elrcnXfeicHpo8rPOu365Rj7eCH2vp8OSaqFfJHTaRS99Ax2iORvId4pkCClKy/m2trgun2efhzs+6LVasXBgwdx8OBB6HQ6REREiL4rX6Bh33VP/iz1huM+EHHy54BKpXL5uqfUk3GMYxzjGMe4gYzjVAw0IKZPn466ujqcPXsWGo0GAFBZWYkFCxagrq4OV69eRWZmJqKiopCQkADANo1DdnY21qxZg/PnzyM1NRUAEB4ejoKCAqjVajGVg73s7Gyxjf72y1/+Ev7+/gAAHx8f8b/8Tyb/brVaMWLECFitVsV6rta1X37t2jX4+fkpljn+LP9fVlYmtnX6/XQsyHE9R4F2fRY03bTPPpGr0LobOcaVKHwcAMZiUaYG6QUNKMxwn7Zt2G/E/CVj4TSVw/J3YFjiVLtejNjtnfz8fFy9ehUjR450uw/t/9kfq87OTowcOVJsy369kydPui3zX//6F7Zt24Zt27ZBo9GIL6UDSa/XIzc3V/xuP72J0WhEWlqauJgCACkpKSKuqakJAFBaWgpA2Yd0Op1YnpKSgrS0tAGpv33fApT7+ptvvlEk7brqR/Y/u+t33cXK/c9VWV2dP9evX8eIESOcXps5cyZ+9rOf2Ua+t+7G7p1GbHx3x43+1oB8aaPoe7ZzfT3WPD4Wa55arrjN26hxMRrwhnOKEbcupiuxG7G79K290Ly9AB89uheFjwO7058B3jLAMAtwNxXDH//4Rxw6dEjxvtTdPpF/lvtfb46dj48Prly54rLfujq2ABTntyP5wsubb76JqVOnYv78+bhy5Yrb9W+Vt/dHwHZ7vK+vr8t97eo42C/vqj/IP8vcff65iunqvLF/n+juc9P+tevXr+Ohhx4a8D4Kx7tTDuYj3XaoMfbh+dAuX4mVeAYl/ziHRTe2ce7GZ7p2/V4Y7LYbkWHAOwUSFkgfie3t2rULx44dc9q/165dg7+/f5f73vE4WK1Wxeefq33v6tgBQHt7O4KCgnrcb318fLqcY1e+M+a1117DjBkzMH/+fFy7ds3p4mp/GQ59l4iIiG5vTOzSgBgzZgxiYmJQWVmJtLQ0GI1GHD16FMuWLUNdXR38/f2RmJiIiooKxMbGQqVSYf/+/Zg+fTpGjx6N/Px8lJeXi6QwYPsDu6CgQCyX/+AeSFarVdzmZbVaYbVaxc/2y1wtdxVj/0/+0tPdNrpy7+OFMDzu7tUG5OcYbdMgPLYRcs5ngd0IJMdRsvKX0Kk7N6L2XUBymB8wP9qAGLhyAieOazBVvp1UniZC3DbeVz2dS9jmr383YMeOnq49MNzdGtuf9Ho96uvrUVtbC5VKBaPRiPXr1yMnJwejR4/Ghg0bkJOTA0mSYLFYsHGjYmw0SktLUVRUhLS0NMW82ADQ0tIitjuQrFYrvvnmG5d9wv6Wefu+0dXv3fVDx3Xt4/ubGEl3MB/S2xrsXQFoNe9A83Y+GlYAWL4UxqZzwKyxOG2shX61JxgAABm5SURBVCa6u9kzz2G343yfkzUwPish/cat4DenK3EzYrfQgKkFEtLf34vCQkO3bairq8Nf//rXXrbcM8nv4QNlOPRH4GafdJyywtXnmPyzY+wdd9zhsj86/uz4+ee4nuP2+1tgYKDth4HsowCcR+zG2C7CIAt7CyMwFgasLJCQf9B28WVjrRZaLVCb43oksFYLbHxMwj0Vtfhwfx3++Y+/3fK+8GQDPX3KcOm7REREdHtjYpcGTEREBN577z0YjUZUVlYiJiYGarVavB4WFoaKigo0NjYiLCwM9fX1SExMhFqtxvTp05GUlKQYOdHQ0IDZs2eLZK9Go0FsbOyAtmHz5s2IjIzs8fp9HWJ/5swZTJw40Wm5uy+89s65GLVrm/fvxi/jF6HQ4DhDrbsvoTdkGGDIgC0pvHOqbaRu6zk0wN1T6Kdi0QojpIIGW1y3ejoVgzzfr8yW6IW7kcYAtm3bho6ODowaNarLhJ+rhMLly5cVX8Ls1ysrK8Pnn3/ussxvfetbeOSRRzBx4kT84Ac/GNBpNSwWi+grcl01Gg1mz56NhoYGhIaGIjQ0VMxlrVKpEBUVJUYWAbbRQ3K/UqvVSExMRHNzM6Kjo9Hc3IzVq1eLUfIDpau+Ndi3uJw+fRoTJ07s8sIL4JyUMpvNCAgIEK/J/48YMQK4/C+k74+BoTACOJgP4F4sWgHkYw3WZDQgv+A0AODE8aWIUfSZHXhGMiJrvcY5uSP6jO0CTOEeDdLzPsFu40ZsdHxIk/0cuzcutERkGFCIBuRLC5wultjfcp5Zthcp/5mOn/70p7jzzjvdJtId2y3/f+nSJcVt4u4ucNnvY8A2V6RKpXK5/10dj9/97ndixKKj73znO9BqtQgJCUFsbCwCAgKwb98+l+veiuHSHwHbSMWpU6cOev9z9/knc3e+mc1mBAYG9ipp7OPjA7PZjODg4EHoo+vhPGL3Xiy6cZFlgbTxRt+88RnXi7nkAWDyy2thNv+n0z66dOkSRo0apVje1T6Sl7uKc/zZ8RhYrVacO3cOY8aMcfk+4e5YbNmyBV999ZXLdkVEROB73/sexo8fj/j4ePj6+qKioqIXe6ZnhlPfJSIiotsbE7s0YOQ/kPft24ejR48iPj5e8br8R3JdXR3GjBmDwMBA8Qd0WloaVq1ahY0bN2L9+vXQ6XRD0YQh5+pWSleUc+O6n8ZAvqW00GmUr32i1/m2bnnkrnb9Xqx0V4lZMVj69gmcw9Qu63pjS32aiuHc+yW2eQfdJHUBIDIyckASEx988IHi9/vvvx+PPPIIYmJi4Ofn12ViwtM1NTVh8uTJUKvVKCsrg9FoxNKlSzFz5kxkZWUN+xFHrm4v7onOzk6RCHH2LRRm4MaDlGJgyBgLYM2NixT3QnM8B7sPzsdH0GAu7C/QLBUPN7v5YCZ3F2IWwTbF7lQY33V+0OHN0bu2aRZEP7txseTmgxBdPVhxLMzmcR45h5Rs165dit/Dw8PFNCiTJk3qdfme4nbvj47c9U1fX18xhUNvfPPNNzcuPAxsH20okPBMLeySvQCwA1KO7TPb5UVQhztsnNg9NFUeGerI0xLzrrzxxhviZx8fHzz00EN45JFHMH/+fIwf380T6zwY+y4RERENBT6NgAZUfHw8KioqMH36dMW0CrLo6Gi0tLSgpKQE999/P1QqFUwmk7h9LSsrCzNnzsT58+cRGhqK6upqGI1GALapGaqrqwe7SV6roUDCgr/Mx3rH+QBbdyNdWoCPHl1/4wup7bZug8EAw54saJe/I55e7X4uQQe1G7FAkiA962paBNsDn1yOFJbXeLzQRVkNeDdHg3fkeX5bdyNdykdDz2p0y3x8fBAREYHnn38e77//PrZv344VK1ZgypQpg1QDG/mCSEVFBSwWCwBbX/j0008RERGBMWPG4LPPPkNjYyMA29zVjqOdHPuRHHvo0CEYjUZoNBrodDqYzWZRBvXS5X8hXe4D7z4DSZIgSRLyDwLAWCxaocHGZzdCs8KWpBn7eCEMhr3I0trCTxtrocEntm1IC7Cx1jbKXZIkpL9/Y+T8wXxIBXIP2IFnbpRx85/9BZpzOHFcC02I/HsDat61mz7FC/n4+ODBBx/EypUr8cEHH6CsrAzJycmDmtRlf/RiA9xHIzIMMBjewVIAtouZBuxdrwVwsx+eez/drg/fYPeZq/wnb8v7+fr6QpIk/OpXv8LevXtRVFSEn/zkJ4Oa1GXfJSIiouGCI3ZpQIWEhGDmzJmYM2eOy9fVajUmTJiAAwcOYO3atWJZW1ubuL3N/la3VatWISkpCQAQFxcHrVY7CK3wfDuedTWNwU0NBRJKNHtvjEgCbMnVlciXJEg3vnB2lWi1F5FRaBsVaP/conefgfSubUTvWJxWjCoCALSeuLmuuxFJjvP9OmyjocA2BYMYkTh+EQoNDciX8gGnkYr9b+3atbjnnnsGuJSeSUhIQFNTkzj/Q0JCoNPpxMWTnJwcxcMHo6OjcenSJRGv1WpRUlKCqqoqALZbsDUajZhD0H45byHtozu/hZXLAcgPV7oxl+dyeVR6k7GL4BtJ2GjAuPwdGOwfWmj3AKaG/TuwNHoNgAbIowhdjdi1OQ0j5mO53M8P1mDH8hi7aU5uaN2NumOz8EBEiOMrHufXv/41xo4dizNnzmDChAlDVg/2Ry81wH3UNsJXg3fsphM6B0C7fj6Mj0mQYPvMvPm5fPvYtm0b7rjjjgGdtqgn2HeJiIhoOGBil/qVWq1Goe3eYAC2ERF5eXmKdVw98EyeW1eWkJAgnixsz3G5/RQNt/MTh5e6nHP2tPjJNrcmnJKqS98ydDmtAQCRtAVgd9upA8UX27FYU+gizTptqi1J62LOX8epGBydez8dz+DmFAwNBRKesZtTdIcEF0mt/uUpSV1ZWlqa23NekiQYDO4fkBUYGIiXXnrJqW/K/dVxOfVNRIYB699Px/9v7w5e5Kr2PID/2u7RNnKN2phheqHjzMJBUB6E4CKTjQyDJJAEwuw0Qd7shDzapYM8hsfA4EYmweXDIP4BcTOLwBMegxulQbJwpeMsTDtRo5ibmEat1Ft0qu10upK6t291nV/157OxOtXfc86vbh9v969v39q/f7DjDsb/XD4U8R+33jxp+V/j3f37463N+/eTd+MP8UJc+JuIDzbsv4GDvz8Za1fcbrz353vxyv6trpB/Kd6JWGvk/v2tRu7l83H6t1/EG/+9xY756ov4/72H4h9mZ+OvxvueY9u2sFBOQ8x+zGmce3Th6JlYPnolzp++dUuGOBgvnYyIpw7F0vKFeOr0P8cfvrgUEZu+jrcY79eB34iTHdQ9aXv37o26rie9jIiwdwGA/DR2majBn65tvv8uo1s4eua2q+5uezO1k+/E0q03HFtr+axdnXvmblfn3tb8vfPzN47/0h+XIuJPQ4fa2IA9+PsLEbetZZPNV+zeWv/y7yLe/fcPI+LD9R9277g/4eXzcfq/Lq69yRuU4Mb/xel/PBEfnnwnlpcHv+xau3/1B/90IZZv/YJkaflCnD+9P9469FK895/vRRx8I9748wfxxr8txUKc3/RLk/j1it1P/hTvHXxqQ5Pn7lfsXvzze3HwqZNrVyX+NuKd5TMbrn7/u3jqw1fW3swpIs5dWIr5+yN6N8bwukApxrxHB+e/l/64HIPhf71//Notj45/8lbs3//K7WNsHm/dxXjr9P9u8e8AAOxmGrtMzNmzZ+PcuXPrf7pGE89tfVVs3LoP4KY3R1va8Keg97TFFbV3H39p6FW/z/1u8xvELDRby2CGe2X++vjam+BAKR782zhzx5Vet5o5W/xbRMTSvwy+yo+v//eOr+vfLMWZ30RELK03i+7wyVu/3t/64BtxISIWBlftx1LceQHac1vusTKup4MxGfsevfMN0haOnokzmz53eXnDzrvruWz4eR8AgN1LY5eJOXXqVJw4cWJbf0576tSpmJvzZQyj2uoWJ2T3XCwtb2j4bG4WUSz7EXKydwGAUtw36QWwez388MOxuLgYDzzwwLbG2LNnT4eryuXatWspcpcvX47Dhw/H4cOHd2Q+KNkk9l9EtNqDwJrt7r+IiCNHjsSRI0fGOh8AALuLSx0hsX6/nyLX6/Xim2++2bH5oGST2H8R0WoPAmu2u/8iIr799tuRx3H+AwBgFHMb35W27TvUZsm1zWapr23u5s2bcd99Lt7eyo8//tj4dc1y3Cex/9rks9S3Vc7eGu5ee6uE4zetuSZjZKxvmJs3b7Yae7e4fv36+utY4vGbptyo40x6naXknEuH23guLfX4jTM3+MXJ6urq0HFLWKecnJycnNw4c3NVVa1/8uBx00ky5AaaZrPUt52cb5aH27NnT6PXNdNx3+ncwG56Pe2t4e62t0o5ftOaG3WMSa+z65z9eHcPPfRQVFVV7PGbptwo45SwzlJy9u5wg3NpycdvnLnZ2dmIiJifn9/y+VLWKScnJycnN9afcxqPDAAAAADARGnsAgAAAAAko7ELAAAAAJCMxi4AAAAAQDIauwAAAAAAyWjsAgAAAAAko7ELAAAAAJCMxi4AAAAAQDIauwAAAAAAyWjsAgAAAAAko7ELAAAAAJCMxi4AAAAAQDJzKysr6x9sfDyqqqpS5AaaZjPV13a+Xq8Xs7OzreacdleuXGn0uk7i+GXIbbQTr2cp+8/eGu5ue6uU4zeu+SZd36hjZK1vmF9++aXV2LvF119/HfPz88Uev67mm2R9/X7/to/HMd80Hj/n0uEG59KSj984cz/99FNERPzwww9Dxy1hnePKRaivy/nU120uQn1dzqe+bnMR01Xf3OLiYkSsFTV43ERd1ylyA02zWerbzvHzzfJwCwsLjV7XSRy/DLmN/zPaidezlP1nbw13t71VyvEb13yTrm/UMbLWN8zc3FzjsXeTffv2xeLiYrHHr6v5JlnfzMxM9Pv9kcbJWN+45nMuHW5wLi35+I0zd//990dExN69e7d8Pnt996K+budTX7c59XU7n/q6zU1bfX7KISIibty4EWfPnp30Morx5ZdfTnoJTAl763b2FpP0888/24+bfP/995NeAtyTc+ntnEsBgAGNXeKRRx6Jr776Ks6dOzfppRTn8ccfn/QSSMzeGs7eYqft27cvPv/8c/txiKqqJr0E2JJz6XDOpQCAxi7x9ttvx8WLFxtlbty4EQ8++GDjudrmvvvuu3jsscd2bL4bN27E008/HU8++WTjLAzca2/t9D4qZf898cQT9hY77s0334zl5eX1j3fr/tvKM888EwsLC43ngJ2w8Vw6jfuvbc65FACI0Ngl1u5LdejQoUaZuq5bXd3TNrede6Ds5Dpho3vtrZ3++syy/2Ac9uzZc9t+tP8gh43n0mnff/YtANDUfZNeAAAAAAAAzWjsAgAAAAAko7ELAAAAAJCMxi4AAAAAQDIauwAAAAAAyWjsAgAAAAAko7ELAAAAAJCMxi4AAAAAQDJzdV2vf7DxcRNZcm2zWeqTkys51zafpT45uSy5JmNkrE9OrvTcqONMep1ycqXner1eRESsrq4OHbeEdcrJycnJyY0zN1dV1fonDx43nSRDbqBpNkt9cnKl5waa5DPVJyeXJTfqGJNep5zctOZGGaeEdcrJlZ6bnZ2NiIj5+fktny9lnXJycnJycuPMuRUDAAAAAEAyGrsAAAAAAMlo7AIAAAAAJKOxCwAAAACQjMYuAAAAAEAyGrsAAAAAAMlo7AIAAAAAJKOxCwAAAACQjMYuAAAAAEAyGrsAAAAAAMlo7AIAAAAAJKOxCwAAAACQzFxd1+sfbHzcRJZc22yW+uTkSs61zWepT04uS67JGBnrk5MrPTfqOJNep5xc6blerxcREaurq0PHLWGdcnJycnJy48zNVVW1/smDx00nyZAbaJrNUp+cXOm5gSb5TPXJyWXJjTrGpNcpJzetuVHGKWGdcnKl52ZnZyMiYn5+fsvnS1mnnJycnJzcOHNuxQAAAAAAkIzGLgAAAABAMhq7AAAAAADJaOwCAAAAACSjsQsAAAAAkIzGLgAAAABAMhq7AAAAAADJaOwCAAAAACSjsQsAAAAAkIzGLgAAAABAMhq7AAAAAADJaOwCAAAAACQzV9f1+gcbHzeRJdc2m6U+ObmSc23zWeqTk8uSazJGxvrk5ErPjTrOpNcpJ1d6rtfrRUTE6urq0HFLWKecnJycnNw4c3NVVa1/8uBx00ky5AaaZrPUJydXem6gST5TfXJyWXKjjjHpdcrJTWtulHFKWKecXOm52dnZiIiYn5/f8vlS1iknJycnJzfOnFsxAAAAAAAko7ELAAAAAJCMxi4AAAAAQDIauwAAAAAAyWjsAgAAAAAko7ELAAAAAJCMxi4AAAAAQDIauwAAAAAAyWjsAgAAAAAko7ELAAAAAJCMxi4AAAAAQDIauwAAAAAAycxcunSpv50BqqqKuq6Lzx07dixmZmbi/PnzOzLfTufaUl8ZubYy1Xfs2LGIiHj//ffHPp/j122uLfWVkRtougez1bdT86mv21xbGes7fvx4RMRI34tmrG8n5lNft7m2SqlvaWkpPvvss3j11VfjxRdfbDxu0/lKy7WlvjJybamvjFxb6isj11ap9c30+/1+RMTKykosLi42nqiu66iqqvjcgQMHYmZmJj766KMdmW+nc9N+/NTX7XyTqG/QVPr444/HPp/j121Ofd3ON6n6Dhw4EBGj78Fs9e3UfOrrNreb6nv++eej3++P9L1oxvp2Yj71dZvLXt/LL78cn376abz++utx4sSJO57PXt+9qK/b+dTXbU593c6nvm5z01afWzEAAAAAACSjsQsAAAAAkIzGLgAAAABAMhq7AAAAAADJaOwCAAAAACSjsQsAAAAAkIzGLgAAAABAMhq7AAAAAADJaOwCAAAAACSjsQsAAAAAkIzGLgAAAABAMhq7AAAAAADJzNV1vf7BxsdNZMm1zWapT06u5FzbfJb65OSy5JqMkbE+ObnSc6OOM+l1ysmVnuv1ehERsbq6OnTcEtYpJycnJyc3ztxcVVXrnzx43HSSDLmBptks9cnJlZ4baJLPVJ+cXJbcqGNMep1yctOaG2WcEtYpJ1d6bnZ2NiIi5ufnt3y+lHXKycnJycmNM+dWDAAAAAAAyWjsAgAAAAAko7ELAAAAAJCMxi4AAAAAQDIauwAAAAAAyWjsAgAAAAAko7ELAAAAAJCMxi4AAAAAQDIauwAAAAAAyWjsAgAAAAAko7ELAAAAAJCMxi4AAAAAQDJzdV2vf7DxcRNZcm2zWeqTkys51zafpT45uSy5JmNkrE9OrvTcqONMep1ycqXner1eRESsrq4OHbeEdcrJycnJyY0zN1dV1fonDx43nSRDbqBpNkt9cnKl5waa5DPVJyeXJTfqGJNep5zctOZGGaeEdcrJlZ6bnZ2NiIj5+fktny9lnXJycnJycuPMuRUDAAAAAEAyGrsAAAAAAMlo7AIAAAAAJKOxCwAAAACQjMYuAAAAAEAyGrsAAAAAAMlo7AIAAAAAJKOxCwAAAACQjMYuAAAAAEAyGrsAAAAAAMlo7AIAAAAAJKOxCwAAAACQzMzVq1f7ERF1XUdVVZNez9i88MIL0e/3p7bGfr8fMzMzk17G2Kgvt36/H9euXYuImMo9uBuOn/ryGtRX13VETN8e3C3Hb1rtpvqmcQ/upuM3jbLXd/369ej1evHaa6/F0aNH73h+2n++VV9u6stNfblNW31zg2LaFpYl9+ijj8aVK1fi6tWrjbNAd+xBmCx7ECbLHoTuzMzMxLPPPrvlz4dZfk6Vk5OTk5PbTm6u8chJnTt3LhYXFxvnSj1wm62srKivw/nU121Ofd3Op75uc+rrdj71dZtTX7fzqa/bnPq6nU993eYAYDdwj10AAAAAgGQ0dgEAAAAAktHYBQAAAABIRmMXAAAAACAZjV0AAAAAgGQ0dgEAAAAAktHYBQAAAABIRmMXAAAAACAZjV0AAAAAgGQ0dgEAAAAAktHYBQAAAABIZubSpUv97QxQVVXUdV18ri31lZFrS31l5NpSXxm5ttRXRq4t9ZWRa0t9ZeTaUl8ZubbUV0auLfWVkWtLfWXk2lJfGbm21DeZ3Ey/3+9HRKysrMTi4mLjieq6jqqqis+pr9v51NdtTn3dzqe+bnPq63Y+9XWbU1+386mv25z6up1Pfd3m1NftfOrrNqe+budTX7c59XU7n/q2l3MrBgAAAACAZDR2AQAAAACS0dgFAAAAAEhGYxcAAAAAIBmNXQAAAACAZDR2AQAAAACS0dgFAAAAAEhGYxcAAAAAIBmNXQAAAACAZDR2AQAAAACS0dgFAAAAAEhGYxcAAAAAIJmZq1ev9iMi6rqOqqomvZ6xUV9u6stNfbmpLzf15aa+3NSXm/pyU19u6stNfbmpL5e5QTFtC5OTk5OTk5OTk5OTk5OTk5OTk5OTk9vZnFsxAAAAAAAko7ELAAAAAJCMxi4AAAAAQDIauwAAAAAAyWjsAgAAAAAko7ELAAAAAJCMxi4AAAAAQDIauwAAAAAAyWjsAgAAAAAko7ELAAAAAJCMxi4AAAAAQDIauwAAAAAAycxcvXq1HxFR13VUVTXp9YyN+nJTX27qy019uakvN/Xlpr7c1Jeb+nJTX27qy019ucwNimlbmJycnJycnJycnJycnJycnJycnJyc3M7m3IoBAAAAACAZjV0AAAAAgGQ0dgEAAAAAktHYBQAAAABIRmMXAAAAACAZjV0AAAAAgGQ0dgEAAAAAkvkLDILg0IpIcKUAAAAASUVORK5CYII=;" vertex="1" parent="1">
          <mxGeometry x="-270" y="110" width="1398" height="555" as="geometry" />
        </mxCell>
      </root>
    </mxGraphModel>
  </diagram>
</mxfile>
